<?xml version='1.0' encoding='utf-8'?>
<svg xmlns="http://www.w3.org/2000/svg" version="1.1" id="Layer_1" x="0px" y="0px" viewBox="0 0 5000 4963.252" enable-background="new 0 0 5000 4963.252"> <g> <g> <path fill-rule="evenodd" clip-rule="evenodd" d="M4292.348,3439.543c159.307-106.603,310.995-248.598,428.786-391.491 c-47.428,50.996-125.962,123.579-163.212,154.214c-50.259,41.77-66.576,55.077-128.604,100.226 c-51.352,37.168-125.734,83.968-162.443,104.31C4275.413,3417.626,4283.904,3428.54,4292.348,3439.543z"/> <g> <path fill-rule="evenodd" clip-rule="evenodd" d="M4240.677,3724.596c17.037,28.098,30.245,50.538,48.418,82.756 c6.059-3.326,56.368-42.273,68.172-67.855c-35.982-53.339-65.912-95.042-99.431-139.747 C4254.754,3628.247,4251.893,3656.879,4240.677,3724.596z"/> <path fill-rule="evenodd" clip-rule="evenodd" d="M4277.345,3812.927c-14.871-34.267-25.207-56.58-36.073-79.661 c-6.149,29.33-27.096,108.908-34.997,134.185C4217.423,3858.035,4241.446,3832.681,4277.345,3812.927z"/> <path fill-rule="evenodd" clip-rule="evenodd" d="M4243.967,3635.514c2.092-17.639,6.372-70.018,7.043-84.313 c-18.287-4.809-38.051-2.05-55.606,4.74c-15.394,5.955-30.533,16.021-38.179,23.198c-15.574,14.363-33.456,38.342-42.837,60.832 c-11.759,28.911-14.67,56.362-0.807,85.049c2.535,5.217,2.106,5.725,4.601,10.134 C4158.536,3706.544,4206.362,3667.307,4243.967,3635.514z"/> <path fill-rule="evenodd" clip-rule="evenodd" d="M4242.998,3644.27c-41.481,40.033-80.808,75.198-116.002,104.447 c13.233,22.813,28.678,46.469,72.503,124.763c0,0,0.705-0.66-0.785-8.82C4217.792,3790.754,4232.505,3717.129,4242.998,3644.27z"/> <path fill-rule="evenodd" clip-rule="evenodd" d="M4259.5,3594.68c35.01,39.872,69.747,80.795,103.25,122.117 c19.824-47.624-58.253-172.308-105.839-161.855C4258.085,3568.245,4258.751,3581.365,4259.5,3594.68z"/> </g> <g> <path fill-rule="evenodd" clip-rule="evenodd" d="M4684.288,2554.761c-24.731-12.042-50.076-23.748-75.182-35.076 c-0.24,0.462-20.114,53.333-17.396,75.956c44.892,20.095,89.707,41.276,134.407,63.539 C4704.63,2602.542,4702.706,2598.441,4684.288,2554.761z"/> <path fill-rule="evenodd" clip-rule="evenodd" d="M4614.61,2510.446c21.735,12.4,43.646,25.166,65.199,38.273 c-21.64-56.76-33.812-83.581-45.09-109.713C4630.328,2463.999,4628.465,2483.1,4614.61,2510.446z"/> <path fill-rule="evenodd" clip-rule="evenodd" d="M4721.912,2624.305c19.148,47.536,14.073,34.551,28.088,72.263 c29.893-6.646,53.138-37.797,61.556-67.117c13.972-48.655,8.156-117.137-37.026-142.133c-4.522-2.501-4.5-3.131-8.563-5.015 C4760.725,2502.791,4738.7,2576.346,4721.912,2624.305z"/> <path fill-rule="evenodd" clip-rule="evenodd" d="M4718.912,2616.943c7.651-26.021,27.81-108.453,33.779-139.705 c-12.59-5.603-66.287-27.224-116.761-45.708c0,0-0.108,0.784,5.395,5.239C4669.597,2494.658,4695.334,2554.75,4718.912,2616.943z "/> <path fill-rule="evenodd" clip-rule="evenodd" d="M4726.859,2664.026c-42.994-17.521-86.217-34.293-129.42-50.292 c5.809,38.868,114.593,109.338,146.537,82.138L4726.859,2664.026z"/> </g> <g> <path fill-rule="evenodd" clip-rule="evenodd" d="M4118.432,3433.807c-20.538-4.234-40.956-8.652-61.251-13.252 c0.193-2.944,8.713-38.998,18.273-49.301c36.436,8.571,73.372,16.682,110.106,23.933 C4172.078,3403.587,4135.795,3424.447,4118.432,3433.807z"/> <path fill-rule="evenodd" clip-rule="evenodd" d="M4057.176,3428.049c18.554,2.54,37.23,4.904,56.024,7.09 c-38.637,23.367-23.886,14.76-70.342,41.1C4047.257,3465.738,4055.842,3448.811,4057.176,3428.049z"/> <path fill-rule="evenodd" clip-rule="evenodd" d="M4169.308,3412.27c14.533-8.069,7.578-4.014,46.227-26.753 c15.863,16.207,18.715,43.907,12.565,62.88c-11.212,34.594-41.213,66.995-78.051,61.328c-3.817-0.572-4.039-0.216-7.333-0.928 C4152.498,3476.654,4161.333,3444.446,4169.308,3412.27z"/> <path fill-rule="evenodd" clip-rule="evenodd" d="M4164.482,3414.929c-6.093,18.245-21.062,63.325-32.118,90.938 c-9.243-2.135-51.377-13.226-91.545-24.957c0,0,0.226-0.482,5.408-0.589C4078.128,3463.777,4098.888,3453.896,4164.482,3414.929z "/> <path fill-rule="evenodd" clip-rule="evenodd" d="M4187.915,3392.883c-33.996-9.196-67.767-18.789-101.599-28.941 c19.567-18.882,115.848-9.128,125.137,19.324L4187.915,3392.883z"/> </g> <g> <path fill-rule="evenodd" clip-rule="evenodd" d="M4588.903,2824.555c-10.695-17.368-22.29-34.598-33.562-51.468 c1.198-0.655,43.235-17.432,61.881-16.852c16.334,26.538,37.094,62.266,55.703,96.729 C4644.949,2843.331,4616.941,2833.862,4588.903,2824.555z"/> <path fill-rule="evenodd" clip-rule="evenodd" d="M4548.173,2777.517c11.966,14.435,24.177,29.168,35.656,44.025 c-30.673-8.632-61.37-17.135-92.089-25.51C4503.703,2793.324,4525.369,2789.615,4548.173,2777.517z"/> <path fill-rule="evenodd" clip-rule="evenodd" d="M4645.459,2850.219l56.708,20.906c-5.493,23.11-31.007,39.902-51.593,45.33 c-36.009,9.547-87.385,5.889-109.619-25.767c-2.187-3.11-2.67-3.073-4.367-5.871 C4578.872,2872.426,4606.596,2863.53,4645.459,2850.219z"/> <path fill-rule="evenodd" clip-rule="evenodd" d="M4639.588,2848.085c-41.262,11.472-70.358,18.826-107.732,27.583 c-6.195-10.328-11.337-21.397-46.098-78.36c0,0,0.635-0.124,4.795,3.347C4540.316,2816.001,4589.997,2831.812,4639.588,2848.085z "/> <path fill-rule="evenodd" clip-rule="evenodd" d="M4676.733,2853.494c-13.605-30.959-29.351-64.455-44.128-93.92 c35.57,2.646,91.049,82.241,69.045,106.993L4676.733,2853.494z"/> </g> <g> <path fill-rule="evenodd" clip-rule="evenodd" d="M4595.687,3400.513c-9.568,19.395-18.837,38.921-29.02,57.992 c-1.621-0.838-38.876-26.708-48.364-43.145c25.119-45.254,33.504-62.241,52.822-99.921 C4578.079,3338.212,4589.751,3377.43,4595.687,3400.513z"/> <path fill-rule="evenodd" clip-rule="evenodd" d="M4574.692,3462.103c7.52-18.349,14.259-37.031,21.154-55.591 c12.679,40.394,16.985,55.458,27.158,93.053C4613.896,3491.005,4598.388,3474.595,4574.692,3462.103z"/> <path fill-rule="evenodd" clip-rule="evenodd" d="M4585.091,3339.008c-5.191-19.244-11.088-38.506-16.961-57.476 c24.71-10.567,55.706,2.563,68.917,12.026c31.606,22.507,61.073,64.874,46.43,103.926c-1.45,3.868-1.121,4.236-2.601,7.501 C4649.095,3382.665,4617.165,3360.671,4585.091,3339.008z"/> <path fill-rule="evenodd" clip-rule="evenodd" d="M4586.743,3345.006c29.769,22.934,59.36,46.27,88.767,70.006 c-1.983,4.535-20.496,40.34-48.011,88.88c0,0-0.461-0.471,0.668-6.186C4612.545,3430.763,4599.155,3385.075,4586.743,3345.006z"/> <path fill-rule="evenodd" clip-rule="evenodd" d="M4569.274,3312.093c-40.822,66.08-23.493,38.374-56.163,88.573 c-7.15-13.391-3.113-35.839,1.237-50.45c6.441-23.188,16.632-41.295,26.605-52.606c7.402-8.5,15.609-13.646,23.81-12.984 L4569.274,3312.093z"/> </g> <g> <path fill-rule="evenodd" clip-rule="evenodd" d="M4401.229,3532.101l37.903,27.69c0.976-0.952,16.202-29.722,16.563-43.372 l-70.689-45.377C4390.56,3491.13,4395.971,3511.484,4401.229,3532.101z"/> <path fill-rule="evenodd" clip-rule="evenodd" d="M4435.05,3564.594l-31.87-28.657c4.209,22.249,8.242,44.798,12.09,67.641 C4418.615,3595.282,4423.62,3579.972,4435.05,3564.594z"/> <path fill-rule="evenodd" clip-rule="evenodd" d="M4385.4,3490.275c-5.459-18.552-8.34-28.621-12.307-40.873 c-16.606,1.943-30.924,16.85-36.694,30.665c-3.779,8.863-7.615,24.231-7.546,37.658c0.082,14.566,4.167,29.712,16.438,40.517 c2.172,1.911,2.091,2.242,4.081,3.775C4376.688,3508.813,4369.288,3523.627,4385.4,3490.275z"/> <path fill-rule="evenodd" clip-rule="evenodd" d="M4386.635,3494.537c-9.562,24.221-20.239,47.932-30.645,71.93 c3.859,2.895,21.56,15.498,57.591,41.224c0,0,0.17-0.438-2.207-3.749C4403.783,3566.766,4395.986,3530.554,4386.635,3494.537z"/> <path fill-rule="evenodd" clip-rule="evenodd" d="M4384.831,3468.375l68.947,36.939c-0.664-24.722-58.713-68.218-77.383-55.197 C4379.247,3456.191,4382.126,3462.313,4384.831,3468.375z"/> </g> <g> <path fill-rule="evenodd" clip-rule="evenodd" d="M4513.048,3067.936l-43.578-17.396c-0.947,2.509-8.194,30.359-5.367,42.662 l78.571,29.936C4532.892,3104.445,4523.014,3086.043,4513.048,3067.936z"/> <path fill-rule="evenodd" clip-rule="evenodd" d="M4471.963,3045.305l38.25,19.475c-10.075-19.996-20.362-39.688-30.675-59.018 C4478.765,3013.916,4478.406,3028.85,4471.963,3045.305z"/> <path fill-rule="evenodd" clip-rule="evenodd" d="M4538.038,3104.375c9.551,17.34,14.563,26.289,20.521,37.823 c16.054-4.996,26.916-23.911,29.601-39.033c4.671-27.257-2.625-62.254-28.584-74.13c-2.622-1.203-2.635-1.538-4.978-2.43 C4542.916,3084.216,4546.522,3067.317,4538.038,3104.375z"/> <path fill-rule="evenodd" clip-rule="evenodd" d="M4535.883,3100.502c5.635-34.781,3.452-20.069,11.103-76.251 c-7.915-2.924-67.116-22.571-67.116-22.571s-0.023,0.43,3.25,2.793C4501.156,3035.625,4519.234,3067.788,4535.883,3100.502z"/> <path fill-rule="evenodd" clip-rule="evenodd" d="M4543.426,3125.739l-74.85-22.567c5.963,22.405,70.345,55.526,86.586,38.961 C4551.276,3136.645,4547.453,3131.21,4543.426,3125.739z"/> </g> <g> <path fill-rule="evenodd" clip-rule="evenodd" d="M4939.604,2762.068c3.264-15.42,5.786-30.942,8.565-46.453 c-1.433-0.264-32.223-1.574-44.278,3.906c-3.561,25.637-1.508,12.781-12.889,82.062 C4907.179,2788.677,4923.381,2775.506,4939.604,2762.068z"/> <path fill-rule="evenodd" clip-rule="evenodd" d="M4954.003,2717.065c-9.759,35.338-7.96,28.932-11.774,41.579 c19.662-14.89,15.13-11.352,53.535-41.86C4987.271,2717.663,4972.022,2720.259,4954.003,2717.065z"/> <path fill-rule="evenodd" clip-rule="evenodd" d="M4908.354,2793.618c-10.764,9.125-21.948,18.065-33.016,26.898 c9.105,16.795,31.508,22.033,42.63,22.054c27.651,0.083,60.744-13.213,68.103-40.84c0.784-2.857,1.114-2.927,1.637-5.449 L4908.354,2793.618z"/> <path fill-rule="evenodd" clip-rule="evenodd" d="M4911.727,2790.787c25.693-0.732,51.406-1.601,77.136-2.607 c5.333-29.186,7.718-47.588,11.138-71.889c0,0-0.446,0.065-2.237,3.83C4974.127,2740.349,4958.544,2753.964,4911.727,2790.787z"/> <path fill-rule="evenodd" clip-rule="evenodd" d="M4888.617,2802.783c4.094-46.451,5.521-61.288,6.351-76.866 c-20.6,10.391-38.945,79.109-20.183,91.321L4888.617,2802.783z"/> </g> <path fill-rule="evenodd" clip-rule="evenodd" d="M4738.899,3142.566c28.12-119.581,48.497-245.82,58.182-392.917 c1.937,145.842-8.206,274.149-27.484,399.095L4738.899,3142.566z"/> </g> <g> <path fill-rule="evenodd" clip-rule="evenodd" d="M3220.541,4368.239c169.555,19.206,390.838,11.734,580.025-24.826 c-185.406,21.657-388.081,17.643-578.541-16.617C3221.625,4340.572,3221.131,4354.386,3220.541,4368.239z"/> <g> <path fill-rule="evenodd" clip-rule="evenodd" d="M2997.896,4553.469c-4.871,31.477-10.178,63.273-16.105,94.577 c4.734,0.957,68.854,4.389,95.863-8.223c6.1-57.991,10.336-110.361,13.602-170.957 C3040.588,4517.434,3015.747,4538.178,2997.896,4553.469z"/> <path fill-rule="evenodd" clip-rule="evenodd" d="M2969.193,4644.718c10.829-36.296,16.272-56.332,23.581-84.246 c-48.371,37.014-81.77,59.153-113.076,80.392C2894.784,4640.354,2930.439,4637.085,2969.193,4644.718z"/> <path fill-rule="evenodd" clip-rule="evenodd" d="M3057.67,4487.396c9.14-8.582,45.646-45.134,59.519-60.138 c-19.185-27.038-57.026-39.735-89.764-38.802c-34.81,1.547-80.321,16.25-105.87,44.079 c-9.699,10.559-17.273,23.654-21.231,39.658c-1.415,5.612-2.071,5.723-2.997,10.693 C2967.17,4488.112,3037.112,4487.433,3057.67,4487.396z"/> <path fill-rule="evenodd" clip-rule="evenodd" d="M3051.297,4493.462c-46.97,3.104-28.976,2.165-78.193,4.207 c-13.472,0.703-66.92,1.485-77.752,1.244c-3.082,17.588-9.699,63.741-24.726,142.19c0,0,0.965-0.046,5.08-7.221 C2937.863,4589.517,2996.462,4542.558,3051.297,4493.462z"/> <path fill-rule="evenodd" clip-rule="evenodd" d="M3095.788,4466.06c1.316,56.623,1.46,112.935,0.674,159.941 c46.46-24.719,65.647-169.688,22.846-192.085C3107.187,4450.905,3112.474,4443.729,3095.788,4466.06z"/> </g> <g> <path fill-rule="evenodd" clip-rule="evenodd" d="M4089.56,3942.078c-11.369-25.312-22.99-50.356-34.858-75.127 c-0.585,0.236-12.951,7.086-26.672,16.314c-13.591,9.373-29.172,20.498-35.708,30.439 c19.989,41.203,38.671,81.257,61.984,135.148C4072.555,3997.562,4085.193,3957.279,4089.56,3942.078z"/> <path fill-rule="evenodd" clip-rule="evenodd" d="M4064.859,3863.423c8.762,23.569,16.973,47.124,25.109,71.097 c6.817-19.624,17.312-48.439,36.092-112.965C4117.233,3828.997,4097.272,3849.247,4064.859,3863.423z"/> <path fill-rule="evenodd" clip-rule="evenodd" d="M4073.705,4019.629c-4.105,12.817-19.274,57.998-25.05,73.341 c15.498,8.073,32.995,8.518,50.219,4.84c27.479-5.947,45.979-18.372,66.182-38.55c29.649-29.938,51.902-71.417,36.931-110.793 c-1.827-4.804-1.399-5.266-3.277-9.308C4132.934,3984.063,4118.124,3992.487,4073.705,4019.629z"/> <path fill-rule="evenodd" clip-rule="evenodd" d="M4076.077,4011.994c36.617-25.586,52.024-35.821,115.78-85.213 c-11.149-22.887-42.341-79.334-60.118-110.217c0,0-0.581,0.536,0.8,7.513C4116.922,3886.526,4098.344,3949.484,4076.077,4011.994 z"/> <path fill-rule="evenodd" clip-rule="evenodd" d="M4051.756,4053.039c-21.627-41.081-43.707-81.53-66.509-121.616 c-20.781,34.194,17.476,157.217,59.246,157.137C4047.143,4076.829,4049.466,4064.887,4051.756,4053.039z"/> </g> <g> <path fill-rule="evenodd" clip-rule="evenodd" d="M3090.951,4252.179c-13.019-16.449-25.828-32.962-38.424-49.537 c0.3-0.313,7.807-6.296,17.181-12.357c7.656-4.82,19.453-12.547,28.42-13.667c27.085,36.235,47.533,62.292,69.014,89.045 C3136.624,4260.896,3099.778,4254.101,3090.951,4252.179z"/> <path fill-rule="evenodd" clip-rule="evenodd" d="M3047.716,4208.371c12.583,13.879,25.374,27.701,38.372,41.461 c-48.396-7.605-29.968-4.41-80.231-13.761C3020.828,4228.377,3032.99,4223.399,3047.716,4208.371z"/> <path fill-rule="evenodd" clip-rule="evenodd" d="M3143.738,4268.341c11.948,2.451,24.53,4.468,52.588,9.172 c1.413,18.136-7.695,35.364-20.457,48.103c-21.11,20.713-78.653,39.953-109.393,5.053c-2.558-2.894-2.957-2.765-5.023-5.429 C3090.549,4307.015,3143.636,4268.415,3143.738,4268.341z"/> <path fill-rule="evenodd" clip-rule="evenodd" d="M3138.333,4267.275c-27.076,16.999-54.745,33.319-82.932,49.061 c-5.752-7.635-30.936-43.276-54.105-78.008c0,0,0.483-0.223,4.52,3.031C3074.805,4257.116,3090.542,4259.443,3138.333,4267.275z"/> <path fill-rule="evenodd" clip-rule="evenodd" d="M3170.426,4265.411c-20.172-28.92-39.869-57.875-59.285-87.405 c27.925-1.59,94.49,67.769,83.5,95.161L3170.426,4265.411z"/> </g> <g> <path fill-rule="evenodd" clip-rule="evenodd" d="M3843.006,4087.317c2.752-20.462,5.158-40.88,7.411-61.022 c0.844,0.171,44.169,14.289,58.105,26.78c-6.264,41.88-14.602,87.299-19.49,109.992 C3873.818,4137.712,3858.475,4112.462,3843.006,4087.317z"/> <path fill-rule="evenodd" clip-rule="evenodd" d="M3842.056,4025.051c-0.143,18.737-0.466,37.646-0.99,56.703 c-17.962-26.376-36.036-52.683-54.204-78.899C3797.693,4008.386,3816.769,4019.597,3842.056,4025.051z"/> <path fill-rule="evenodd" clip-rule="evenodd" d="M3869.759,4143.29l29.949,52.442c-19.664,14.401-49.845,10.419-68.648,1.534 c-33.611-15.826-70.793-51.678-67.388-90.21c0.333-3.78-0.062-4.063,0.445-7.29 C3787.003,4109.69,3814.735,4122.004,3869.759,4143.29z"/> <path fill-rule="evenodd" clip-rule="evenodd" d="M3866.638,4137.883c-41.245-18.836-68.351-32.152-100.241-48.144 c6.883-37.375,12.942-74.574,15.093-89.719c0,0,0.563,0.31,1.55,5.687C3811.359,4049.582,3839.127,4093.521,3866.638,4137.883z"/> <path fill-rule="evenodd" clip-rule="evenodd" d="M3891.607,4165.921c7.896-26.028,19.433-70.589,26.537-100.4 c25.573,24.913,17.01,121.561-15.889,126.405L3891.607,4165.921z"/> </g> <g> <path fill-rule="evenodd" clip-rule="evenodd" d="M3478.194,4533.018c-19.794,8.713-39.421,17.765-59.478,25.845 c-0.871-2.086-12.665-45.455-9.393-64.123c52.481-20.272,63.37-25.266,104.636-42.719 C3504.819,4473.603,3488.263,4511.933,3478.194,4533.018z"/> <path fill-rule="evenodd" clip-rule="evenodd" d="M3422.562,4566.771c17.551-9.236,34.696-19.263,51.904-29.053 c-16.904,40.792-22.603,53.48-38.903,88.786C3434.074,4614.096,3432.715,4591.56,3422.562,4566.771z"/> <path fill-rule="evenodd" clip-rule="evenodd" d="M3509.542,4479.054c8.374-18.081,16.197-36.667,23.88-54.959 c25.733,7.767,41.071,37.731,45.127,53.465c9.8,37.587,5.119,88.989-31.093,109.479c-3.594,2.034-3.578,2.527-6.809,4.081 C3530.602,4553.606,3520.232,4516.25,3509.542,4479.054z"/> <path fill-rule="evenodd" clip-rule="evenodd" d="M3506.958,4484.712c8.108,36.69,15.822,73.575,23.139,110.647 c-4.856,2.445-44.286,18.81-93.866,37.348c0,0-0.052-0.657,4.484-4.314C3471.252,4567.901,3490.15,4524.841,3506.958,4484.712z"/> <path fill-rule="evenodd" clip-rule="evenodd" d="M3514.68,4448.25c-74.859,24.856-42.247,14.223-99.911,31.879 c6.723-32.094,91.246-78.309,114.086-55.824L3514.68,4448.25z"/> </g> <g> <path fill-rule="evenodd" clip-rule="evenodd" d="M3244.597,4509.086l11.295,45.603c0.925-0.044,31.311-12.192,40.546-22.637 l-25.071-80.167C3262.728,4470.842,3253.806,4489.912,3244.597,4509.086z"/> <path fill-rule="evenodd" clip-rule="evenodd" d="M3249.676,4555.744l-6.035-42.436c-11.056,19.767-22.457,39.611-34.183,59.584 C3217.353,4568.688,3231.03,4560.178,3249.676,4555.744z"/> <path fill-rule="evenodd" clip-rule="evenodd" d="M3259.32,4466.874c5.729-13.138,11.439-25.937,16.795-39.249 c-8.016-5.263-17.547-6.573-26.281-5.92c-14.702,1.138-25.121,6.851-36.228,15.466c-20.161,15.249-33.519,36.405-27.976,61.548 C3239.289,4476.141,3224.268,4482.653,3259.32,4466.874z"/> <path fill-rule="evenodd" clip-rule="evenodd" d="M3257.53,4470.932c-31.428,16.62-18.219,9.854-69.684,35.446 c1.111,4.748,6.635,25.951,17.694,68.639c0,0,0.42-0.205,0.709-4.312C3224.304,4537.316,3241.576,4504.545,3257.53,4470.932z"/> <path fill-rule="evenodd" clip-rule="evenodd" d="M3272.946,4449.729l29.154,72.583c15.352-19.52-1.261-90.013-23.913-92.02 C3276.465,4436.753,3274.767,4443.355,3272.946,4449.729z"/> </g> <g> <path fill-rule="evenodd" clip-rule="evenodd" d="M3628.36,4225.001l-22.269-41.393c-0.101,0.04-25.341,17.212-31.516,29.283 l41.001,73.4C3620.095,4265.699,3624.355,4245.267,3628.36,4225.001z"/> <path fill-rule="evenodd" clip-rule="evenodd" d="M3611.374,4181.206l16.815,39.513c5.107-21.829,9.923-43.463,14.454-64.895 C3636.799,4161.565,3626.908,4172.759,3611.374,4181.206z"/> <path fill-rule="evenodd" clip-rule="evenodd" d="M3624.087,4268.952c-2.736,13.979-5.487,28.206-8.548,42.193 c20.944,8.579,54.52-5.362,71.712-42.383c6.259-13.511,8.77-28.968,1.772-43.681c-1.236-2.605-1.03-2.87-2.251-5.059 C3666.037,4236.422,3645.431,4253.183,3624.087,4268.952z"/> <path fill-rule="evenodd" clip-rule="evenodd" d="M3624.924,4264.603c19.669-16.579,38.518-34.179,57.525-51.277 c-4.194-7.337-36.971-60.48-36.971-60.48s-0.288,0.323,0.718,4.263C3639.968,4192.534,3633.192,4228.86,3624.924,4264.603z"/> <path fill-rule="evenodd" clip-rule="evenodd" d="M3614.482,4288.766l-42.888-65.368c-9.769,21.099,18.271,87.743,41.383,85.514 C3613.548,4302.254,3614.04,4295.522,3614.482,4288.766z"/> </g> <g> <path fill-rule="evenodd" clip-rule="evenodd" d="M4151.65,4265.131l36.438-30.022c-0.99-1.199-23.71-21.97-36.445-25.558 c-37.272,33.059-22.865,20.61-62.738,54.376C4109.627,4264.509,4130.635,4265.013,4151.65,4265.131z"/> <path fill-rule="evenodd" clip-rule="evenodd" d="M4191.616,4239.97l-35.792,24.192c22.441,1.054,45.096,1.889,67.958,2.498 C4216.708,4261.856,4203.347,4254.004,4191.616,4239.97z"/> <path fill-rule="evenodd" clip-rule="evenodd" d="M4107.353,4269.049c-14.248-0.105-28.284-0.155-42.458-0.549 c-4.417,21.243,13.598,51.579,52.828,62.453c14.318,4.014,30.037,3.717,43.913-5.67c2.449-1.667,2.747-1.509,4.778-3.09 L4107.353,4269.049z"/> <path fill-rule="evenodd" clip-rule="evenodd" d="M4111.768,4269.069c20.155,15.995,40.413,31.897,60.77,47.708 c13.464-11.186,7.813-6.154,54.808-47.763c0,0-0.384-0.238-4.195,1.468C4185.575,4270.74,4148.73,4270.579,4111.768,4269.069z"/> <path fill-rule="evenodd" clip-rule="evenodd" d="M4086.312,4263.314c44.188-43.54,24.273-23.794,54.35-54.652 c-21.997-5.172-80.715,35.073-74.074,56.986L4086.312,4263.314z"/> </g> <path fill-rule="evenodd" clip-rule="evenodd" d="M3753.528,4427.262c106.736-79.898,206.199-168.049,297.049-263.328 c-83.095,102.228-175.936,198.63-277.489,287.785L3753.528,4427.262z"/> </g> <g> <path fill-rule="evenodd" clip-rule="evenodd" d="M1802.663,4390.513c131.711,136.517,292.927,257.674,443.804,344.401 c86.052,48.597-180.328-93.431-416.028-375.181C1821.249,4370.109,1812.02,4380.279,1802.663,4390.513z"/> <g> <path fill-rule="evenodd" clip-rule="evenodd" d="M1513.041,4389.248c-22.352,19.573-49.675,42.939-73.14,62.134 c10.822,11.218,53.128,48.401,78.729,55.284c38.512-37.153,76.718-75.636,120.307-122.195 C1599.234,4387.042,1574.968,4388.634,1513.041,4389.248z"/> <path fill-rule="evenodd" clip-rule="evenodd" d="M1432.399,4440.718c27.297-18.009,44.187-29.521,72.223-49.412 c-45.8-1.968-91.731-6.022-138.29-11.084C1380.68,4391.363,1407.476,4410.164,1432.399,4440.718z"/> <path fill-rule="evenodd" clip-rule="evenodd" d="M1601.278,4377.113c52.312-3.987,71.735-6.459,84.295-7.89 c2.68-32.685-18.787-68.299-43.86-87.348c-27.434-21.241-71.872-39.212-109.44-34.333c-14.212,1.84-28.412,6.966-41.739,16.7 c-4.725,3.455-5.295,3.109-9.196,6.318C1519.641,4307.111,1559.604,4342.728,1601.278,4377.113z"/> <path fill-rule="evenodd" clip-rule="evenodd" d="M1592.506,4377.642c-68.211-50.155-114.021-88.237-122.98-96.078 c-14.42,12.125-48.124,42.32-110.315,93.042c0,0,0.766,0.59,8.535-2.274C1443.856,4378.317,1518.936,4380.001,1592.506,4377.642z "/> <path fill-rule="evenodd" clip-rule="evenodd" d="M1644.207,4385.251c-33.158,41.398-67.292,82.456-102.312,122.972 c52.13,10.444,159.281-87.946,141.022-132.538C1670.104,4378.97,1657.105,4382.386,1644.207,4385.251z"/> </g> <g> <path fill-rule="evenodd" clip-rule="evenodd" d="M2742.303,4622.786c7.6-26.602,14.842-53.09,21.659-79.976 c-0.299-0.093-3.909-0.76-9.494-1.59c-17.989-2.719-49.466-7.674-68.316-2.675c-13.409,52.95-28.062,105.394-39.546,143.363 C2679.298,4662.743,2711.234,4643.292,2742.303,4622.786z"/> <path fill-rule="evenodd" clip-rule="evenodd" d="M2774,4546.604c-8.462,23.651-17.279,47.394-26.515,70.707 c34.349-20.301,67.805-41.38,100.311-63.249C2826.59,4554.122,2805.446,4556.083,2774,4546.604z"/> <path fill-rule="evenodd" clip-rule="evenodd" d="M2680.243,4671.822c-30.358,19.06-19.456,12.443-66.363,40.112 c11.701,28.35,47.012,46.013,76.662,49.075c51.277,5.054,116.473-11.653,133.732-60.878c1.695-4.837,2.321-4.912,3.486-9.202 C2766.895,4684.437,2750.681,4682.922,2680.243,4671.822z"/> <path fill-rule="evenodd" clip-rule="evenodd" d="M2686.979,4667.571c37.444,4.117,109.291,8.34,143.491,9.42 c3.08-12.291,15.194-68.881,24.89-123.053c0,0-0.79,0.033-4.225,6.236C2799.054,4598.262,2744.21,4633.737,2686.979,4667.571z"/> <path fill-rule="evenodd" clip-rule="evenodd" d="M2641.956,4683.419c9.911-45.044,19.01-90.695,27.361-136.04 c-37.237,12.277-88.149,131.748-55.784,158.5L2641.956,4683.419z"/> </g> <g> <path fill-rule="evenodd" clip-rule="evenodd" d="M1778,4218.336c0.595-20.954,1.422-41.895,2.435-62.706 c1.614-0.185,39.677,1.586,51.657,9.409c-1.934,34.419-3.405,67.405-4.367,112.524 C1810.503,4258.297,1794.149,4237.949,1778,4218.336z"/> <path fill-rule="evenodd" clip-rule="evenodd" d="M1773.076,4156.9c0.705,18.751,1.606,37.591,2.705,56.519 c-36.994-42.736-27.549-31.517-52.587-62.221C1733.134,4153.425,1750.557,4159.298,1773.076,4156.9z"/> <path fill-rule="evenodd" clip-rule="evenodd" d="M1808.042,4264.666c11.239,13.598,22.732,27.121,34.386,40.824 c-15.456,21.688-45.462,25.234-59.699,23.362c-36.73-5.402-72.86-29.083-73.94-66.142c-0.118-3.816-0.493-4.006-0.365-7.371 C1768.34,4261.751,1745.457,4259.647,1808.042,4264.666z"/> <path fill-rule="evenodd" clip-rule="evenodd" d="M1804.594,4260.356c-15.153-2.333-49.041-6.84-95.078-15.738 c0.505-9.518,4.137-53.02,8.74-94.641c0,0,0.512,0.142,1.509,5.24C1746.914,4191.134,1754.123,4201.218,1804.594,4260.356z"/> <path fill-rule="evenodd" clip-rule="evenodd" d="M1830.399,4279.493c3.156-35.16,6.709-70.067,10.752-104.977 c22.108,15.623,29.061,112.424,2.781,126.562L1830.399,4279.493z"/> </g> <g> <path fill-rule="evenodd" clip-rule="evenodd" d="M2460.094,4575.183c22.89-20.69,18.916-17.091,44.94-41.908 c2.072,2.584,24.746,40.275,27.269,58.065c-47.623,41.557-62.474,52.976-85.674,71.548 C2451.28,4633.655,2455.768,4604.419,2460.094,4575.183z"/> <path fill-rule="evenodd" clip-rule="evenodd" d="M2499.43,4526.999c-22.13,25.889-13.561,16.101-37.243,42.66 c3.207-31.712,6.286-63.425,9.237-95.139C2476.35,4486.258,2483.473,4506.6,2499.43,4526.999z"/> <path fill-rule="evenodd" clip-rule="evenodd" d="M2444.586,4635.368l-10.781,59.495c-22.505-0.967-44.349-23.028-53.557-42.974 c-15.574-33.689-21.025-84.944,6.361-112.429c2.686-2.698,2.566-3.168,5.029-5.329 C2408.435,4567.992,2426.076,4602.113,2444.586,4635.368z"/> <path fill-rule="evenodd" clip-rule="evenodd" d="M2445.672,4629.212c-15.072-31.644-27.204-57.838-45.836-101.347 c24.41-20.237,33.457-27.426,69.294-59.01c0,0,0.232,0.604-2.473,5.31C2460.122,4525.851,2453.127,4577.535,2445.672,4629.212z"/> <path fill-rule="evenodd" clip-rule="evenodd" d="M2446.766,4666.729c25.377-17.112,35.988-23.872,84.894-59.684 c3.515,35.37-65.36,103.779-93.458,86.508L2446.766,4666.729z"/> </g> <g> <path fill-rule="evenodd" clip-rule="evenodd" d="M1894.095,4682.386c-66.263-19.287-43.798-12.717-62.18-18.454 c0.556-1.788,19.336-42.599,34.038-55.201c25.738,8.601,53.805,18.634,107.634,34.496 C1956.754,4652.058,1911.969,4674.176,1894.095,4682.386z"/> <path fill-rule="evenodd" clip-rule="evenodd" d="M1829.776,4672.463c18.065,3.726,1.007,0.525,58.444,11.112 c-28.368,14.675-57.449,29.429-86.876,42.964C1808.178,4716.089,1821.62,4697.976,1829.776,4672.463z"/> <path fill-rule="evenodd" clip-rule="evenodd" d="M1952.809,4661.176c17.809-8.523,12.141-5.663,53.629-26.782 c14.718,22.523,7.213,55.335,0.209,69.99c-11.747,24.756-34.842,51.535-61.74,61.248c-10.091,3.647-20.973,4.712-32.453,2.605 c-4.06-0.761-4.364-0.374-7.837-1.268C1921.031,4731.792,1937.095,4696.526,1952.809,4661.176z"/> <path fill-rule="evenodd" clip-rule="evenodd" d="M1947.195,4663.839c-17.367,33.298-35.162,66.491-53.383,99.572 c-33.479-9.971-62.923-19.891-95.941-31.696c0,0,0.383-0.536,6.204-0.404C1835.647,4718.098,1884.521,4695.86,1947.195,4663.839z "/> <path fill-rule="evenodd" clip-rule="evenodd" d="M1976.563,4640.805c-24.797-8.91-75.419-30.495-97.034-39.801 c25.707-20.236,120.161-1.563,123.277,30.608L1976.563,4640.805z"/> </g> <g> <path fill-rule="evenodd" clip-rule="evenodd" d="M1730.572,4513.765l-20.678,42.223c1.323,0.644,31.99,10.827,45.573,8.834 l32.349-77.562C1768.989,4496.293,1749.943,4505.025,1730.572,4513.765z"/> <path fill-rule="evenodd" clip-rule="evenodd" d="M1704.412,4552.917l22.716-36.541c-16.974,6.771-41.998,15.605-64.491,23.675 C1671.376,4541.936,1687.303,4544.262,1704.412,4552.917z"/> <path fill-rule="evenodd" clip-rule="evenodd" d="M1768.953,4490.997c22.928-11.368,14.176-6.914,38.124-19.346 c-4.409-15.211-21.666-27.335-36.602-30.747c-19.035-3.997-58.295-5.574-75.4,22.346c-1.502,2.47-1.842,2.446-3.004,4.671 C1738.076,4482.339,1720.391,4477.062,1768.953,4490.997z"/> <path fill-rule="evenodd" clip-rule="evenodd" d="M1764.976,4492.944c-44.445-9.822-21.454-4.326-76.132-17.731 c-2.258,4.462-12.483,25.99-30.577,63.955c0,0,0.465,0.083,3.322-2.863C1709.026,4517.688,1725.564,4510.547,1764.976,4492.944z"/> <path fill-rule="evenodd" clip-rule="evenodd" d="M1790.426,4486.578l-24.328,74.327c24.458-5.266,56.856-69.737,40.849-85.876 L1790.426,4486.578z"/> </g> <g> <path fill-rule="evenodd" clip-rule="evenodd" d="M2207.124,4542.824l9.525-45.963c-10.723-1.127-32.912-2.101-42.958,2.155 l-15.747,82.59C2174.638,4568.719,2191.032,4555.789,2207.124,4542.824z"/> <path fill-rule="evenodd" clip-rule="evenodd" d="M2222.241,4498.402l-12.504,41.081c17.939-13.446,35.537-26.981,52.783-40.516 C2254.351,4499.627,2239.576,4501.877,2222.241,4498.402z"/> <path fill-rule="evenodd" clip-rule="evenodd" d="M2175.606,4573.775c-11.078,8.954-22.332,18.118-33.661,26.844 c9.087,17.308,32.244,22.247,43.605,22.308c27.604-0.194,60.817-13.375,68.008-41.089c0.727-2.792,1.055-2.863,1.526-5.325 C2195.905,4575.045,2213.05,4575.655,2175.606,4573.775z"/> <path fill-rule="evenodd" clip-rule="evenodd" d="M2179.043,4570.979c25.726-0.086,51.468-1.382,77.031-2.375 c1.499-8.304,10.525-70.023,10.525-70.023s-0.428,0.052-2.185,3.687C2236.872,4525.442,2208.345,4548.898,2179.043,4570.979z"/> <path fill-rule="evenodd" clip-rule="evenodd" d="M2155.513,4582.8l9.14-77.644c-21.037,9.869-42.377,78.959-23.237,92.105 C2146.132,4592.527,2150.831,4587.707,2155.513,4582.8z"/> </g> <g> <path fill-rule="evenodd" clip-rule="evenodd" d="M2581.932,4909.883c38.523,0.834,20.657,0.498,47.179,0.535 c0.03-2.582-4.258-32.421-11.435-42.915c-21.01,0.816-75.126,1.402-82.948,1.258 C2548.671,4881.506,2566.396,4896.541,2581.932,4909.883z"/> <path fill-rule="evenodd" clip-rule="evenodd" d="M2628.684,4916.417c-25.789-2.45-15.923-1.39-42.934-4.549 c24.383,22.779,24.371,22.566,50.37,45.623C2633.799,4949.282,2628.63,4934.722,2628.684,4916.417z"/> <path fill-rule="evenodd" clip-rule="evenodd" d="M2545.543,4884.655c-10.825-9.28-21.531-18.67-32.115-28.013 c-14.944,11.913-16.237,34.888-14.346,45.841c3.269,19.367,18.457,56.525,51.827,60.113c2.943,0.271,3.069,0.583,5.638,0.656 L2545.543,4884.655z"/> <path fill-rule="evenodd" clip-rule="evenodd" d="M2548.906,4887.478c5.132,25.169,10.399,50.333,15.802,75.49 c3.218,0.049,31.905,0.147,72.622-1.392c0,0-0.14-0.427-4.152-1.531C2619.482,4948.74,2598.475,4931.869,2548.906,4887.478z"/> <path fill-rule="evenodd" clip-rule="evenodd" d="M2533.139,4866.603c11.698-0.64,68.223-5.865,76.712-6.763 c-14.444-19.133-84.719-24.563-93.296-4.318L2533.139,4866.603z"/> </g> <path fill-rule="evenodd" clip-rule="evenodd" d="M2173.072,4778.234c133.146,7.305,265.88,3.937,396.622-10.86 c-129.281,25.134-262.224,39.013-397.348,42.167L2173.072,4778.234z"/> </g> <g> <path fill-rule="evenodd" clip-rule="evenodd" d="M702.297,3495.88c13.461,184.684,54.356,376.484,125.121,566.947 c-53.89-184.183-84.114-373.812-84.021-572.723C729.605,3492.203,716.05,3494.041,702.297,3495.88z"/> <g> <path fill-rule="evenodd" clip-rule="evenodd" d="M481.026,3308.963c-31.779,0.682-64.035,1.03-95.973,0.704 c2.291,24.607,10.714,72.678,24.898,92.927c57.062-3.957,114.285-9.614,170.682-16.489 C554.38,3366.838,533.054,3351.609,481.026,3308.963z"/> <path fill-rule="evenodd" clip-rule="evenodd" d="M386.148,3296.671c27.942,3.187,48.5,5.375,87.102,8.466 c-33.86-30.904-66.488-63.492-98.911-97.281C378.154,3225.625,386.664,3257.234,386.148,3296.671z"/> <path fill-rule="evenodd" clip-rule="evenodd" d="M556.472,3356.292c53.395,37.583,42.958,30.373,69.715,48.057 c22.885-23.177,29.512-64.406,22.419-95.14c-7.346-33.792-30.007-76.269-61.879-96.561c-12.073-7.71-26.246-12.894-42.71-13.986 c-5.818-0.393-6.092-1-11.132-1.048C538.802,3250.214,546.604,3303.165,556.472,3356.292z"/> <path fill-rule="evenodd" clip-rule="evenodd" d="M549.408,3351.066c-10.041-41.1-24.063-100.471-32.638-152.597 c-20.899,0.045-60.105,1.561-144.318,0.521c0,0,0.165,0.96,8.04,3.724C434.935,3256.202,491.494,3305.649,549.408,3351.066z"/> <path fill-rule="evenodd" clip-rule="evenodd" d="M584.171,3390.087c-52,10.464-104.502,20.029-157.385,28.635 c33.428,41.479,178.596,34.763,193.216-11.124C608.088,3401.881,595.894,3396.172,584.171,3390.087z"/> </g> <g> <path fill-rule="evenodd" clip-rule="evenodd" d="M1272.664,4278.105c22.96-15.567,45.465-31.111,67.973-47.346 c-0.691-1.097-36.821-44.614-56.854-53.304c-39.941,28.81-80.99,57.293-122.408,84.413 C1179.024,4265.155,1220.562,4271.734,1272.664,4278.105z"/> <path fill-rule="evenodd" clip-rule="evenodd" d="M1345.895,4240.11c-26.107,15.271-42.157,24.271-65.736,37.121 c46.272,8.286,109.118,15.059,117.493,16.011C1381.606,4279.856,1363.793,4267.377,1345.895,4240.11z"/> <path fill-rule="evenodd" clip-rule="evenodd" d="M1193.584,4275.826c-24.588-3.336-14.92-1.797-76.672-11.866 c-9.229,29.206,6.933,65.975,27.258,86.815c35.524,36.429,96.621,65.979,141.609,39.26c4.408-2.618,4.936-2.274,8.586-4.814 C1261.263,4350.904,1243.527,4333.183,1193.584,4275.826z"/> <path fill-rule="evenodd" clip-rule="evenodd" d="M1201.49,4276.88c33.219,34.259,68.166,66.969,103.901,99.413 c11.245-8.155,56.869-43.822,98.136-78.282c0,0-0.626-0.483-7.244,2.062C1331.934,4295.734,1267.044,4287.797,1201.49,4276.88z"/> <path fill-rule="evenodd" clip-rule="evenodd" d="M1156.829,4260.054c39.094-30.184,72.02-56.551,108.347-86.599 c-11.17-4.326-27.892-1.584-39.494,1.481c-23.748,6.256-51.518,19.817-72.317,35.123c-15.205,11.151-36.245,30.502-32.829,49.039 L1156.829,4260.054z"/> </g> <g> <path fill-rule="evenodd" clip-rule="evenodd" d="M793.931,3347.981c13.855-15.662,27.971-31.214,42.096-46.522 c0.705,0.44,29.32,26.372,33.584,40.419c-25.794,27.428-50.78,55.144-75.567,83.49 C793.234,3399.501,793.679,3373.431,793.931,3347.981z"/> <path fill-rule="evenodd" clip-rule="evenodd" d="M829.57,3297.703c-11.497,14.837-22.901,29.869-34.209,45.093 c-0.94-57.489-0.891-42.966-0.391-81.503C801.144,3269.395,810.771,3285.066,829.57,3297.703z"/> <path fill-rule="evenodd" clip-rule="evenodd" d="M787.208,3402.835c-0.045,17.617,0.018,35.416,0.163,53.413 c-25.789,6.701-50.995-9.909-60.777-20.454c-24.71-27.725-37.185-69.118-14.231-98.229c2.366-3.007,2.161-3.373,4.434-5.879 C758.618,3375.071,742.427,3358.765,787.208,3402.835z"/> <path fill-rule="evenodd" clip-rule="evenodd" d="M787.333,3397.313c-13.131-14.943-32.138-35.595-62.817-73.149 c6.495-6.975,37.211-38.013,67.453-66.978c0,0,0.302,0.438-2.207,4.989C786.082,3335.981,787.008,3357.243,787.333,3397.313z"/> <path fill-rule="evenodd" clip-rule="evenodd" d="M794.852,3428.568c24.983-24.929,50.18-49.455,75.618-73.594 c7.062,26.143-50.002,104.881-79.113,98.856L794.852,3428.568z"/> </g> <g> <path fill-rule="evenodd" clip-rule="evenodd" d="M1087.063,4060.302c20.676-0.878,40.958-1.738,61.315-3.154 c-0.025,1.224-6.204,45.592-16.327,61.836c-28.838,0.571-48.981,1.317-111.789-0.111 C1042.645,4099.466,1064.921,4079.932,1087.063,4060.302z"/> <path fill-rule="evenodd" clip-rule="evenodd" d="M1148.097,4048.775c-18.431,3.035-37.051,5.909-55.865,8.628 c22.873-22.24,45.646-44.563,68.321-66.971C1156.953,4002.08,1149.168,4022.847,1148.097,4048.775z"/> <path fill-rule="evenodd" clip-rule="evenodd" d="M1036.425,4096.462l-46.442,38.508c-16.694-16.066-19.286-45.552-13.36-67.357 c9.861-35.927,38.778-78.777,77.211-81.947c3.769-0.313,3.98-0.751,7.235-0.797 C1052.035,4021.695,1044.011,4058.682,1036.425,4096.462z"/> <path fill-rule="evenodd" clip-rule="evenodd" d="M1041.207,4092.459c9.478-36.183,19.523-71.876,30.117-107.059 c69.041-0.013,59.334,0.104,91.103-0.761c0,0-0.209,0.609-5.323,2.495C1118.829,4022.542,1080.146,4057.708,1041.207,4092.459z"/> <path fill-rule="evenodd" clip-rule="evenodd" d="M1017.893,4121.903c60.491,6.233,73.884,6.792,103.563,8.702 c-20.686,30.301-117.802,36.801-127.304,6.238L1017.893,4121.903z"/> </g> <g> <path fill-rule="evenodd" clip-rule="evenodd" d="M584.838,3778.32c-31.222-46.867-31.805-47.671-35.752-54.075 c3.003-1.931,43.343-20.353,61.612-20.483c12.505,20.603,34.294,56.875,60.281,95.562 C647.28,3794.266,608.165,3784.383,584.838,3778.32z"/> <path fill-rule="evenodd" clip-rule="evenodd" d="M541.965,3729.409c4.2,5.483,4.694,6.035,37.609,46.049 c-56.512-12.678-77.084-18.385-94.116-22.879C497.403,3748.962,519.325,3743.72,541.965,3729.409z"/> <path fill-rule="evenodd" clip-rule="evenodd" d="M643.421,3799.8c19.488,4.927,39.025,9.498,58.299,13.944 c-2.916,23.363-25.029,44.64-44.833,53.717c-35.787,16.484-87.428,19.926-113.161-11.608c-2.609-3.197-3.091-3.096-5.165-6.016 C573.724,3833.446,608.679,3816.766,643.421,3799.8z"/> <path fill-rule="evenodd" clip-rule="evenodd" d="M637.422,3798.224c-34.684,14.33-69.625,28.308-104.818,41.93 c-12.355-17.939-37.798-59.554-53.129-85.84c0,0,0.637-0.165,5.003,3.677C541.79,3775.295,586.526,3786.576,637.422,3798.224z"/> <path fill-rule="evenodd" clip-rule="evenodd" d="M674.807,3799.387c-6.909-11.984-23.393-42.312-48.766-92.81 c32.771,1.098,93.099,76.011,74.7,102.692L674.807,3799.387z"/> </g> <g> <path fill-rule="evenodd" clip-rule="evenodd" d="M567.912,3544.063l-42.957,19.093c0.599,1.342,17.541,28.85,29.223,36.05 l74.652-38.714C608.504,3555.383,588.384,3549.793,567.912,3544.063z"/> <path fill-rule="evenodd" clip-rule="evenodd" d="M522.728,3557.281l40.869-13.427c-19.071-6.297-39.125-13.842-64.647-23.243 C504.452,3527.658,515.108,3539.7,522.728,3557.281z"/> <path fill-rule="evenodd" clip-rule="evenodd" d="M611.931,3551.267c13.75,3.464,27.771,6.599,41.671,9.641 c6.52-14.815,0.588-35.298-8.328-47.076c-5.812-7.797-16.48-17.958-28.958-25.27c-12.609-7.223-27.723-11.259-43.193-6.015 c-2.737,0.93-2.982,0.694-5.301,1.654C593.836,3524.791,583.671,3509.388,611.931,3551.267z"/> <path fill-rule="evenodd" clip-rule="evenodd" d="M607.635,3550.204c-28.616-37.137-17.844-22.76-46.968-62.485 c-4.615,1.98-26.095,11.841-64.496,29.408c0,0,0.303,0.362,4.383-0.062C546.697,3532.528,567.179,3538.706,607.635,3550.204z"/> <path fill-rule="evenodd" clip-rule="evenodd" d="M631.266,3561.647l-66.38,41.354c21.965,11.705,88.35-16.909,86.446-39.586 L631.266,3561.647z"/> </g> <g> <path fill-rule="evenodd" clip-rule="evenodd" d="M914.383,3872.641l36.901-29.077c-0.665-0.863-22.616-22.269-34.341-25.944 l-65.179,53.072C872.803,3871.598,893.417,3872.484,914.383,3872.641z"/> <path fill-rule="evenodd" clip-rule="evenodd" d="M954.536,3848.378l-35.975,23.362c43.513,2.358,41.69,2.327,66.422,3.018 C980.14,3871.348,966.514,3863.648,954.536,3848.378z"/> <path fill-rule="evenodd" clip-rule="evenodd" d="M870.238,3876.141c-14.233-0.285-28.559-0.674-42.978-1.169 c-4.037,18.97,10.188,37.937,18.922,45.225c15.737,12.807,51.834,31.435,78.602,12.221c2.358-1.673,2.658-1.52,4.606-3.104 C918.857,3920.483,880.222,3885.759,870.238,3876.141z"/> <path fill-rule="evenodd" clip-rule="evenodd" d="M874.652,3876.226c8.164,6.921,48.937,39.117,60.587,47.671 c6.499-5.397,53.163-46.854,53.163-46.854s-0.366-0.23-4.067,1.436C942.21,3878.715,896.419,3877.471,874.652,3876.226z"/> <path fill-rule="evenodd" clip-rule="evenodd" d="M849.147,3870.031l56.969-53.567c-22.476-5.952-83.704,33.576-77.115,55.61 L849.147,3870.031z"/> </g> <g> <path fill-rule="evenodd" clip-rule="evenodd" d="M965.225,4394.999c11.921,10.256,23.686,20.747,35.803,30.802 c0.956-1.115,17.457-26.966,18.814-40.229c-21.54-17.415-43.346-34.459-64.316-52.526 C961.519,4373.864,960.124,4365.07,965.225,4394.999z"/> <path fill-rule="evenodd" clip-rule="evenodd" d="M996.843,4430.125c-10.165-10.212-19.999-20.801-29.954-31.165 c6.417,49.462,5.656,43.808,9.268,67.397C979.649,4458.582,985.035,4444.117,996.843,4430.125z"/> <path fill-rule="evenodd" clip-rule="evenodd" d="M953.629,4352.149c-2.346-14.066-4.593-28.062-6.74-41.985 c-19.218-0.379-34.864,16.234-40.5,25.891c-10.058,17.066-22.075,55.032,1.213,79.286c2.055,2.137,1.95,2.459,3.849,4.198 L953.629,4352.149z"/> <path fill-rule="evenodd" clip-rule="evenodd" d="M954.361,4356.517c-12.285,22.628-24.485,45.37-36.533,68.142 c5.011,4.29,39.62,32.502,56.636,45.604c0,0,0.166-0.417-2.209-3.83C968.034,4444.922,958.127,4385.477,954.361,4356.517z"/> <path fill-rule="evenodd" clip-rule="evenodd" d="M955.688,4330.378c20.694,15.252,42.009,29.651,63.159,44.189 c1.339-23.161-48.698-73.477-68.826-63.265L955.688,4330.378z"/> </g> <path fill-rule="evenodd" clip-rule="evenodd" d="M736.779,4030.953c93.761,88.769,199.678,173.01,310.65,247.039 c-137.61-76.822-236.869-148.925-331.316-223.58L736.779,4030.953z"/> </g> <g> <path fill-rule="evenodd" clip-rule="evenodd" d="M434.315,2103.494c-63.015,86.895-120.859,184.067-166.049,274.413 c-31.073,63.75-22.654,46.102-47.027,100.253c-19.33,42.354-49.699,122.441-55.691,139.972 c72.409-167.351,177.523-342.11,303.959-492.657C457.584,2118.22,446.044,2110.924,434.315,2103.494z"/> <g> <path fill-rule="evenodd" clip-rule="evenodd" d="M384.898,1818.099c-24.811-19.915-49.483-40.307-74.004-61.171 c-1.23,1.442-37.853,56.404-40.629,87.209c46.873,34.031,93.939,66.226,141.343,97.076 C401.577,1900.92,392.528,1859.826,384.898,1818.099z"/> <path fill-rule="evenodd" clip-rule="evenodd" d="M320.103,1747.682c21.303,22.377,37.248,38.736,61.32,62.495 c-4.333-34.709-7.688-57.803-13.161-138.081C357.074,1692.879,343.332,1721.429,320.103,1747.682z"/> <path fill-rule="evenodd" clip-rule="evenodd" d="M412.335,1902.865c7.194,27.623,14.236,54.719,22.487,81.607 c33.635-3.177,65.349-32.235,78.301-58.468c8.428-16.526,13.719-33.168,16.916-51.17c7.149-36.858,1.295-74.575-25.896-100.698 c-4.206-4.042-3.987-4.67-7.868-7.964C466.743,1810.184,439,1855.857,412.335,1902.865z"/> <path fill-rule="evenodd" clip-rule="evenodd" d="M410.181,1894.297c22.928-47.145,47.385-93.102,73.092-137.866 c-10.874-9.051-57.67-46.379-110.821-92.363c0,0-0.424,0.866,3.836,8.048C383.654,1748.096,394.941,1822.26,410.181,1894.297z"/> <path fill-rule="evenodd" clip-rule="evenodd" d="M411.747,1946.534c-46.536-25.398-92.842-51.801-138.888-79.202 c-0.981,53.975,114.707,141.189,155.135,115.656C422.57,1970.958,416.922,1958.753,411.747,1946.534z"/> </g> <g> <path fill-rule="evenodd" clip-rule="evenodd" d="M368.09,3069.421c27.503,2.848,54.888,5.341,82.537,7.36 c0.013-0.101,1.179-54.674-9.369-77.336c-47.73-3.475-101.236-8.402-148.044-13.985 C317.72,3014.349,342.504,3042.398,368.09,3069.421z"/> <path fill-rule="evenodd" clip-rule="evenodd" d="M448.639,3087.327c-24.74-4.207-49.69-8.732-74.253-13.759 c25.97,30.286,52.62,59.523,79.784,87.72C451.546,3146.386,444.535,3119.86,448.639,3087.327z"/> <path fill-rule="evenodd" clip-rule="evenodd" d="M308.981,3016.848c-17.526-18.967-34.129-38.543-51.071-58.403 c-65.678,41.76-31.463,192.185,48.327,205.212c5.067,0.822,5.218,1.436,9.689,1.82 C312.011,3109.128,310.392,3091.963,308.981,3016.848z"/> <path fill-rule="evenodd" clip-rule="evenodd" d="M314.345,3022.742c2.812,42.194,12.413,120.806,15.802,142.961 c13.968,0.981,71.904,2.938,125.457,3.017c0,0-0.169-0.773-6.872-3.072C398.093,3115.772,364.529,3081.366,314.345,3022.742z"/> <path fill-rule="evenodd" clip-rule="evenodd" d="M290.912,2981.144c46.112,1.925,92.546,2.966,138.706,3.273 c-18.619-34.557-145.167-63.83-165.807-27.366L290.912,2981.144z"/> </g> <g> <path fill-rule="evenodd" clip-rule="evenodd" d="M599.589,2049.087c20.53-3.124,41.473-5.935,62.109-8.586 c0.056,0.139,5.722,38.599-0.241,52.522c-37.416,4.428-74.287,9.62-111.532,15.401 C565.932,2088.09,582.983,2068.404,599.589,2049.087z"/> <path fill-rule="evenodd" clip-rule="evenodd" d="M659.178,2033.48c-18.348,3.973-36.798,8.145-55.211,12.544 c17.334-21.379,34.168-42.389,52.105-62.649C655.35,1996.58,653.021,2010.994,659.178,2033.48z"/> <path fill-rule="evenodd" clip-rule="evenodd" d="M559.166,2086.772c-11.344,13.468-22.746,27.139-34.201,41.018 c-24.081-11.437-32.661-40.345-33.451-54.721c-1.155-37.078,15.904-76.809,52.287-84.364c3.751-0.781,3.831-1.193,7.146-1.66 C555.105,2047.141,553.181,2024.27,559.166,2086.772z"/> <path fill-rule="evenodd" clip-rule="evenodd" d="M562.785,2082.618c-1.426-57.688-1.195-35.541-1.162-96.39 c9.507-1.17,53.056-5.193,94.802-7.924c0,0-0.052,0.529-4.906,2.399C605.176,2030.469,589.88,2049.757,562.785,2082.618z"/> <path fill-rule="evenodd" clip-rule="evenodd" d="M548.488,2111.395c35.16-3.046,70.239-5.642,105.228-7.789 c-11.382,24.599-105.807,48.183-124.143,24.894L548.488,2111.395z"/> </g> <g> <path fill-rule="evenodd" clip-rule="evenodd" d="M366.011,2783.285c16.238,12.655,32.326,25.035,48.996,37.009 c-0.802,0.912-34.192,30.936-52.403,36.866c-37.199-29.935-51.564-42.165-85.353-72.024 C306.865,2784.683,336.452,2784.066,366.011,2783.285z"/> <path fill-rule="evenodd" clip-rule="evenodd" d="M420.205,2813.699c-16.447-9.456-32.249-19.284-48.385-29.307 c31.801-2.309,63.581-4.747,95.338-7.313C453.089,2786.107,436.447,2795.592,420.205,2813.699z"/> <path fill-rule="evenodd" clip-rule="evenodd" d="M304,2778.386l-60.499-0.378c-2.734-26.65,19.94-51.102,33.126-60.167 c29.661-20.615,79.822-35.582,111.858-13.038c3.131,2.18,3.572,1.981,6.135,4.034C366.301,2729.64,331.406,2756.146,304,2778.386 z"/> <path fill-rule="evenodd" clip-rule="evenodd" d="M310.254,2778.395c32.428-22.89,56.239-39.264,91.981-62.569 c35.147,29.727,38.768,33.089,70.1,58.022c0,0-0.554,0.332-5.665-1.515C414.609,2774.818,362.468,2776.839,310.254,2778.395z"/> <path fill-rule="evenodd" clip-rule="evenodd" d="M273.493,2785.932c29.49,30.643,39.516,40.795,73.53,73.313 c-34.908,9.774-113.39-46.831-101.459-77.132L273.493,2785.932z"/> </g> <g> <path fill-rule="evenodd" clip-rule="evenodd" d="M162.901,2244.433c7.118-65.902,4.828-45.115,7.319-64.4 c1.857,0.237,45.326,11.609,60.278,23.883c-9.997,67.048-6.527,41.327-15.277,111.94 C201.296,2297.497,177.263,2265.023,162.901,2244.433z"/> <path fill-rule="evenodd" clip-rule="evenodd" d="M161.447,2179.415c-0.535,18.012-0.393,5.95-0.744,59.444 c-19.421-25.365-39.001-51.403-57.464-78C114.723,2165.762,134.903,2175.833,161.447,2179.415z"/> <path fill-rule="evenodd" clip-rule="evenodd" d="M194.007,2298.524c11.447,16.281,23.692,32.342,35.672,48.137 c-19.59,18.39-53.209,16.677-68.864,12.322c-37.526-10.33-79.65-40.039-79.273-81.585c0.038-4.125-0.396-4.357-0.124-7.927 C118.923,2279.509,156.454,2289.193,194.007,2298.524z"/> <path fill-rule="evenodd" clip-rule="evenodd" d="M190.403,2293.461c-35.822-11.312-71.615-23.057-107.373-35.233 c0.372-6.606,6.898-55.042,14.508-99.884c0,0,0.594,0.283,1.481,6.034C118.026,2193.896,149.719,2239.887,190.403,2293.461z"/> <path fill-rule="evenodd" clip-rule="evenodd" d="M218.127,2318.365c10.209-51.732,17.305-80.965,22.352-102.431 c24.535,21.966,22.376,118.091-8.699,126.669L218.127,2318.365z"/> </g> <g> <path fill-rule="evenodd" clip-rule="evenodd" d="M300.392,2054.063l-45.182-12.975c-0.433,1.521-5.09,33.43-0.785,46.401 l82.069,18.303C324.22,2088.819,312.39,2071.607,300.392,2054.063z"/> <path fill-rule="evenodd" clip-rule="evenodd" d="M257.281,2035.155l39.941,15.974c-12.202-20.12-8.866-14.355-34.586-59.352 C262.33,2000.714,262.681,2016.775,257.281,2035.155z"/> <path fill-rule="evenodd" clip-rule="evenodd" d="M329.484,2087.866c8.305,11.488,17.02,22.897,25.735,34.163 c8.712-4.297,14.277-11.953,18.104-19.843c6.24-12.918,6.873-25.004,4.84-39.091c-3.705-25.667-14.811-47.211-39.364-54.956 C332.767,2055.163,335.567,2029.871,329.484,2087.866z"/> <path fill-rule="evenodd" clip-rule="evenodd" d="M326.876,2084.292c1.927-46.833,0.938-28.913,4.181-78.054 c-4.798-1.446-27.68-7.719-68.308-18.916c0,0-0.001,0.472,3.396,2.769C290.487,2029.892,302.858,2048.922,326.876,2084.292z"/> <path fill-rule="evenodd" clip-rule="evenodd" d="M337.62,2108.243l-77.435-10.966c9.325,23.085,78.586,43.816,91.683,25.216 L337.62,2108.243z"/> </g> <g> <path fill-rule="evenodd" clip-rule="evenodd" d="M354.564,2528.543l46.909,1.495c0.08-1.453-2.546-31.011-9.674-41.974 l-84.06-1.312C323.321,2500.983,338.973,2514.912,354.564,2528.543z"/> <path fill-rule="evenodd" clip-rule="evenodd" d="M400.789,2535.822l-42.475-5.278c17.683,16.905,14.723,14.075,48.948,45.064 C405.206,2567.671,400.268,2553.507,400.789,2535.822z"/> <path fill-rule="evenodd" clip-rule="evenodd" d="M318.538,2502.807c-19.486-17-12.126-10.446-32.126-28.548 c-15.709,11.935-16.467,35.586-14.515,46.787c3.192,19.958,19.731,57.396,52.185,59.945c2.877,0.238,3.005,0.548,5.512,0.59 C322.367,2534.422,324.877,2552.521,318.538,2502.807z"/> <path fill-rule="evenodd" clip-rule="evenodd" d="M321.896,2505.712c8.838,45.446,5.215,28.12,15.659,75.488 c8.441,0.052,70.807-1.639,70.807-1.639s-0.127-0.412-4.016-1.52C368.823,2548.371,352.732,2534.086,321.896,2505.712z"/> <path fill-rule="evenodd" clip-rule="evenodd" d="M306.194,2484.562l78.113-4.354c-13.255-19.051-85.145-28.164-94.683-7.049 L306.194,2484.562z"/> </g> <g> <path fill-rule="evenodd" clip-rule="evenodd" d="M57.431,2961.268c2.444,15.559,4.719,31.175,7.664,46.658 c1.526-0.253,30.864-9.515,40.261-18.729c-2.438-11.138-12.935-64.948-15.579-81.649 C78.555,2925.27,68.064,2943.118,57.431,2961.268z"/> <path fill-rule="evenodd" clip-rule="evenodd" d="M59.111,3008.547c-1.337-14.35-2.101-28.79-2.965-43.168 c-23.339,36.376-19.127,29.576-36.184,57.635C27.641,3019.298,41.074,3011.672,59.111,3008.547z"/> <path fill-rule="evenodd" clip-rule="evenodd" d="M75.996,2920.976c7.293-12.3,14.618-24.48,21.972-36.541 c-14.362-12.686-37.22-9.998-47.677-6.24c-18.546,6.576-52.331,27.965-50.194,61.578c0.176,2.966-0.056,3.134,0.308,5.685 C25.522,2937.218,50.742,2929.053,75.996,2920.976z"/> <path fill-rule="evenodd" clip-rule="evenodd" d="M73.734,2924.797c-23.961,9.433-47.769,18.977-71.614,28.67 c0.588,3.616,6.677,37.549,14.033,71.451c0,0,0.396-0.213,0.779-4.362C34.935,2988.509,55.303,2954.385,73.734,2924.797z"/> <path fill-rule="evenodd" clip-rule="evenodd" d="M91.623,2905.607c5.594,22.313-0.069,1.431,19.915,74.544 c16.409-17.379,9.466-87.832-11.917-92.824L91.623,2905.607z"/> </g> <path fill-rule="evenodd" clip-rule="evenodd" d="M116.788,2535.418c15.987,136.223,41.452,261.04,78.858,389.083 c-47.282-124.447-82.737-247.244-109.811-384.428L116.788,2535.418z"/> </g> <g> <path fill-rule="evenodd" clip-rule="evenodd" d="M1124.054,864.823c-186.915,47.521-364.644,120.934-536.866,221.242 c184.033-90.751,361.86-147.64,549.794-181.61C1132.598,891.311,1128.288,878.101,1124.054,864.823z"/> <g> <path fill-rule="evenodd" clip-rule="evenodd" d="M1269.812,614.467c-6.206-31.183-12.004-62.638-17.386-94.357 c-2.236,0.372-65.282,18.94-87.182,40.638c11.404,45.932,27.743,105.575,45.871,165.19 C1221.173,705.838,1246.685,654.079,1269.812,614.467z"/> <path fill-rule="evenodd" clip-rule="evenodd" d="M1265.381,518.881c1.74,29.133,4.183,58.472,6.864,87.293 c25.347-39.139,33.689-52.534,78.596-114.266C1325.501,501.994,1299.451,513.762,1265.381,518.881z"/> <path fill-rule="evenodd" clip-rule="evenodd" d="M1236.403,697.121c-22.307,47.026-17.215,35.786-35.307,76.918 c29.82,20.572,74.206,15.81,97.657,5.592c51.097-23.142,96.718-66.942,90.731-122.239c-0.625-5.797-0.053-6.136-0.911-11.152 C1368.823,652.174,1293.379,674.419,1236.403,697.121z"/> <path fill-rule="evenodd" clip-rule="evenodd" d="M1240.236,689.135c47.919-21.323,96.083-41.02,144.632-58.705 c-2.641-14.175-14.727-74.403-25.656-141.976c0,0-0.881,0.391-2.229,8.627C1313.843,560.038,1274.929,624.226,1240.236,689.135z"/> <path fill-rule="evenodd" clip-rule="evenodd" d="M1207.825,730.137c-19.358-49.431-37.782-99.316-55.439-149.882 c-35.291,40.237-3.147,181.702,44.435,188.256L1207.825,730.137z"/> </g> <g> <path fill-rule="evenodd" clip-rule="evenodd" d="M452.37,1562.003c19.12,19.812,38.821,39.465,58.56,58.728 c0.378-0.346,36.735-42.636,42.457-65.304c-35.257-34.289-70.229-69.661-104.416-105.875 C449.201,1501.205,451.265,1539.522,452.37,1562.003z"/> <path fill-rule="evenodd" clip-rule="evenodd" d="M502.595,1627.519c-16.152-19.089-32.412-38.62-48.087-58.3 c0.563,53.792,2.661,83.127,4.707,118.482C471.628,1666.253,480.237,1648.419,502.595,1627.519z"/> <path fill-rule="evenodd" clip-rule="evenodd" d="M440.92,1483.752c-1.375-40.055-1.096-23.219-1.559-77.548 c-30.284-4.021-62.753,17.297-80.852,41.913c-11.392,15.26-24.264,40.844-29.979,68.036 c-5.653,27.528-2.539,57.086,15.926,78.284c3.388,3.901,3.152,4.485,6.32,7.649 C376.166,1565.725,418.862,1510.182,440.92,1483.752z"/> <path fill-rule="evenodd" clip-rule="evenodd" d="M441.223,1491.706c-31.858,44.293-69.316,102.337-79.715,119.691 c19.301,18.676,66.99,60.001,94.097,82.943c0,0,0.322-0.717-3.363-6.798C445.581,1623.537,441.894,1558.189,441.223,1491.706z"/> <path fill-rule="evenodd" clip-rule="evenodd" d="M449.992,1444.772c33.654,30.721,70.136,62.704,104.188,91.684 c7.912-38.505-70.182-142.124-109.401-127.526L449.992,1444.772z"/> </g> <g> <path fill-rule="evenodd" clip-rule="evenodd" d="M1285.769,929.571c17.804,10.888,35.407,21.873,53.032,33.241 c-0.107,0.24-20.327,33.237-34.066,40.086c-31.287-20.39-63.029-40.321-95.297-59.878 C1255.228,934.318,1237.7,937.375,1285.769,929.571z"/> <path fill-rule="evenodd" clip-rule="evenodd" d="M1341.412,955.831c-16.652-8.791-33.501-17.486-50.304-25.776 c18.236-3.884,48.268-9.571,80.214-14.64C1365.375,921.802,1351.57,933.777,1341.412,955.831z"/> <path fill-rule="evenodd" clip-rule="evenodd" d="M1230.557,932.488c-43.479,7.462-36.562,6.252-52.617,9.411 c-11.34-24.567,0.984-51.904,9.635-63.423c4.436-5.854,9.13-10.763,15.813-16.306c23.105-19.164,51.87-29.095,78.517-14.762 c3.381,1.819,3.708,1.555,6.552,3.333C1268.339,877.677,1249.012,904.911,1230.557,932.488z"/> <path fill-rule="evenodd" clip-rule="evenodd" d="M1235.96,931.578c16.647-22.311,53.785-65.839,61.208-74.596 c16.35,10.586,57.614,40.059,77.703,54.786c0,0-0.381,0.371-5.313-1.323C1328.716,914.881,1259.329,926.591,1235.96,931.578z"/> <path fill-rule="evenodd" clip-rule="evenodd" d="M1206.411,944.356c28.92,20.326,57.492,40.943,85.709,61.843 c-24.27,11.225-111.901-30.578-111.109-60.792C1196.937,944.596,1191.107,944.844,1206.411,944.356z"/> </g> <g> <path fill-rule="evenodd" clip-rule="evenodd" d="M634.715,1341.462c9.13,41.663,6.574,30.526,13.767,59.85 c-3.532,0.539-47.396,1.197-63.869-5.442c-9.533-48.376-12.348-65.303-19.094-110.023 C588.5,1304.528,611.565,1323.067,634.715,1341.462z"/> <path fill-rule="evenodd" clip-rule="evenodd" d="M656.708,1399.603c-6.499-17.802-12.365-35.53-18.254-53.559 c25.849,18.666,51.765,37.219,77.746,55.659C704.132,1400.188,682.077,1395.969,656.708,1399.603z"/> <path fill-rule="evenodd" clip-rule="evenodd" d="M590.352,1297.863l-46.112-39.162c15.034-22.173,48.09-26.357,64.02-24.831 c37.003,3.511,84.306,24.517,94.089,61.884c1,3.683,1.466,3.814,2.112,7.035C669.407,1300.541,625.265,1298.431,590.352,1297.863 z"/> <path fill-rule="evenodd" clip-rule="evenodd" d="M595.138,1301.89c38.243,3.197,67.434,5.945,110.673,11.151 c7.822,45.247,8.477,50.37,16.432,89.513c0,0-0.638-0.101-3.366-4.802C677.392,1366.202,636.144,1334.247,595.138,1301.89z"/> <path fill-rule="evenodd" clip-rule="evenodd" d="M562.127,1284.042c2.899,41.965,3.805,54.118,9.209,103.412 c-32.909-14.892-56.817-108.713-28.154-124.282L562.127,1284.042z"/> </g> <g> <path fill-rule="evenodd" clip-rule="evenodd" d="M825.707,798.147c14.052-13.81,4.315-4.569,46.975-44.646 c1.534,1.665,27.49,38.447,30.885,57.2c-22.493,19.453-44.167,38.258-83.717,75.859 C821.133,860.289,821.432,848.826,825.707,798.147z"/> <path fill-rule="evenodd" clip-rule="evenodd" d="M866.369,747.384c-27.604,31.755-32.753,37.577-38.808,45.031 c0.709-22.019,4.183-74.623,6.155-96.737C839.293,706.759,848.348,727.547,866.369,747.384z"/> <path fill-rule="evenodd" clip-rule="evenodd" d="M814.643,859.52c-1.427,20.102-2.789,39.916-3.764,59.736 c-26.676,1.613-51.316-21.336-60.527-34.772c-22.777-33.095-34.667-82.346-8.275-113.603c2.715-3.104,2.533-3.56,5.065-6.093 C769.327,796.545,790.103,825.753,814.643,859.52z"/> <path fill-rule="evenodd" clip-rule="evenodd" d="M815.101,853.283c-20.292-31.863-39.896-63.671-59.404-95.987 c15.959-15.524,60.144-54.564,75.284-67.204c0,0,0.272,0.598-2.778,5.538C822.221,748.257,817.671,796.932,815.101,853.283z"/> <path fill-rule="evenodd" clip-rule="evenodd" d="M820.438,890.332c22.068-17.819,60.055-47.669,82.961-64.082 c4.483,32.204-58.503,104.902-88.324,91.23L820.438,890.332z"/> </g> <g> <path fill-rule="evenodd" clip-rule="evenodd" d="M1053.423,740.923l-26.226-38.977c-1.723,1.151-25.307,21.676-30.41,35.047 l51.037,66.807C1050.09,773.413,1049.175,783.743,1053.423,740.923z"/> <path fill-rule="evenodd" clip-rule="evenodd" d="M1032.62,698.764l20.271,37.884c5.258-33.694,4.776-30.224,11.672-67.701 C1059.631,674.336,1048.532,687.967,1032.62,698.764z"/> <path fill-rule="evenodd" clip-rule="evenodd" d="M1053.869,785.426c-0.846,14.354-1.587,28.615-2.225,42.782 c18.884,4.643,37.238-8.547,44.9-16.39c16.154-17.167,32.522-50.574,18.358-76.434c-1.388-2.532-1.197-2.813-2.543-4.929 C1092.361,748.263,1073.198,766.994,1053.869,785.426z"/> <path fill-rule="evenodd" clip-rule="evenodd" d="M1054.154,780.99c17.652-19.032,35.146-38.434,53.5-56.97 c-2.755-4.21-16.022-23.409-40.126-58.396c0,0-0.305,0.359,0.814,4.297C1064.316,696.947,1060.736,718.614,1054.154,780.99z"/> <path fill-rule="evenodd" clip-rule="evenodd" d="M1047.097,806.389l-52.222-58.223c-7.81,23.56,31.81,83.941,53.903,78.236 L1047.097,806.389z"/> </g> <g> <path fill-rule="evenodd" clip-rule="evenodd" d="M789.664,1138.957l34.994,31.309c1.424-1.537,17.935-26.232,19.58-38.336 l-63.511-55.021C783.226,1097.6,786.409,1118.443,789.664,1138.957z"/> <path fill-rule="evenodd" clip-rule="evenodd" d="M820.447,1174.277l-29.185-31.369c3.695,32.715,3.044,26.984,8.518,65.951 C805.952,1195.606,809.456,1186.343,820.447,1174.277z"/> <path fill-rule="evenodd" clip-rule="evenodd" d="M778.473,1095.987c-2.143-14.041-4.172-28.17-6.128-42.421 c-42.111-1.653-75.011,76.043-35.909,109.958C749.846,1140.669,764.268,1118.462,778.473,1095.987z"/> <path fill-rule="evenodd" clip-rule="evenodd" d="M779.193,1100.381c-27.347,49.967-20.277,36.695-36.412,67.968 c6.435,5.466,55.317,44.256,55.317,44.256s0.166-0.398-2.107-3.75C791.266,1182.106,787.182,1160.984,779.193,1100.381z"/> <path fill-rule="evenodd" clip-rule="evenodd" d="M780.936,1074.228l62.612,46.874c1.965-23.201-47.287-76.459-68.043-66.318 L780.936,1074.228z"/> </g> <g> <path fill-rule="evenodd" clip-rule="evenodd" d="M283.919,1279.509c-14.702,24.251-9.183,14.901-24.081,40.67 c2.271,1.342,30.237,12.514,42.897,11.541c5.721-11.121,34.035-61.907,40.47-72.573 C324.707,1265.178,329.975,1263.298,283.919,1279.509z"/> <path fill-rule="evenodd" clip-rule="evenodd" d="M254.856,1316.809c15.025-21.149,9.172-13.123,25.432-34.98 c-31.45,9.639-29.347,9.08-64.73,20.894C223.831,1304.813,239.031,1307.611,254.856,1316.809z"/> <path fill-rule="evenodd" clip-rule="evenodd" d="M324.01,1260.569c13.499-4.729,26.946-9.346,40.339-13.853 c-2.841-18.938-22.08-31.566-32.509-35.407c-18.421-6.872-58.117-12.238-78.026,14.904c-1.709,2.419-2.042,2.372-3.392,4.566 L324.01,1260.569z"/> <path fill-rule="evenodd" clip-rule="evenodd" d="M319.858,1262.062c-24.361-8.141-48.788-16.16-73.278-24.056 c-14.975,25.064-35.11,63.617-35.167,63.726c0,0,0.441,0.092,3.408-2.835C232.061,1292.452,257.56,1282.542,319.858,1262.062z"/> <path fill-rule="evenodd" clip-rule="evenodd" d="M345.868,1258.846c-6.828,13.553-29.148,62.147-32.575,69.922 c23.402-2.956,63.757-61.047,50.462-78.775L345.868,1258.846z"/> </g> <path fill-rule="evenodd" clip-rule="evenodd" d="M603.077,991.376c-72.305,109.837-134.447,222.936-189.629,348.801 c44.279-127.584,97.517-246.651,162.938-365.117L603.077,991.376z"/> </g> <g> <path fill-rule="evenodd" clip-rule="evenodd" d="M2448.482,359.293c-165.716-81.202-360.661-143.377-553.439-176.1 c188.822,45.683,373.865,119.089,537.819,214.51C2437.969,384.904,2443.175,372.1,2448.482,359.293z"/> <g> <path fill-rule="evenodd" clip-rule="evenodd" d="M2721.149,261.09c15.284-27.904,31.056-55.755,47.314-83.54 c-1.76-1.034-61.798-27.265-92.917-24.792c-25.065,51.335-48.774,103.912-71.012,156.087 C2639.193,293.677,2684.756,274.135,2721.149,261.09z"/> <path fill-rule="evenodd" clip-rule="evenodd" d="M2779.174,184.988c-18.677,25.397-31.96,43.925-50.829,71.298 c69.156-21.38,96.754-27.887,133.649-37.064C2833.078,209.662,2807.769,202.456,2779.174,184.988z"/> <path fill-rule="evenodd" clip-rule="evenodd" d="M2642.446,302.843c-25.968,12.006-51.433,23.478-76.51,36.343 c5.058,18.356,17.033,33.495,32.011,45.625c21.357,17.294,44.962,25.229,72.75,28.097c44.256,4.747,89.618-4.783,114.573-42.069 c3.246-4.845,3.902-4.739,6.468-9.135C2763.823,349.732,2719.405,329.973,2642.446,302.843z"/> <path fill-rule="evenodd" clip-rule="evenodd" d="M2650.508,299.277c68.076,20.043,70.344,20.569,148.55,47.929 c6.746-11.939,36.336-66.15,71.568-125.251c0,0-0.926-0.267-7.251,5.176C2789.858,247.69,2718.824,271.661,2650.508,299.277z"/> <path fill-rule="evenodd" clip-rule="evenodd" d="M2599.315,309.913c16.939-50.261,34.892-100.472,53.856-150.601 c-52.702,8.344-119.363,137.341-86.958,172.893C2577.129,324.769,2588.182,317.003,2599.315,309.913z"/> </g> <g> <path fill-rule="evenodd" clip-rule="evenodd" d="M1485.988,461.477c1.943,27.458,4.453,55.207,7.213,82.628 c0.439-0.02,55.639-9.13,74.474-22.836c-5.031-48.925-9.136-98.471-12.121-148.208 C1520.092,415.928,1505.301,435.968,1485.988,461.477z"/> <path fill-rule="evenodd" clip-rule="evenodd" d="M1482.45,543.956c-0.133-25.01-0.048-50.39,0.546-75.575 c-33.43,40.931-49.597,63.113-72.456,93.863C1434.098,553.686,1452.121,545.607,1482.45,543.956z"/> <path fill-rule="evenodd" clip-rule="evenodd" d="M1527.433,394.127c25.105-32.195,15.594-20.386,48.581-60.465 c-20.656-22.535-59.26-27.021-88.908-19.755c-46.442,10.984-105.795,50.195-104.67,103.186c0.093,5.164-0.463,5.46-0.065,9.919 C1407.915,419.826,1485.776,401.624,1527.433,394.127z"/> <path fill-rule="evenodd" clip-rule="evenodd" d="M1522.559,400.418c-44.592,11.434-94.17,26.137-137.937,40.617 c2.521,23.962,12.02,84.377,18.906,124.012c0,0,0.723-0.315,1.773-7.394C1441.31,504.337,1480.399,451.822,1522.559,400.418z"/> <path fill-rule="evenodd" clip-rule="evenodd" d="M1559.406,370.052c5.971,44.302,13.455,92.589,21.056,137.182 c30.711-24.415,37.453-154.002-2.044-168.005L1559.406,370.052z"/> </g> <g> <path fill-rule="evenodd" clip-rule="evenodd" d="M2530.789,512.591c6.642,19.934,13.068,39.858,19.277,59.767 c-1.347,0.658-38.024,12.099-51.976,8.868c-11.684-38.571-21.968-70.438-34.527-107.256 C2485.956,486.216,2477.915,481.586,2530.789,512.591z"/> <path fill-rule="evenodd" clip-rule="evenodd" d="M2556.567,568.643c-7.121-17.375-14.453-34.766-21.997-52.17 c51.814,28.721,38.831,21.32,70.948,40.419C2595.394,558.156,2576.975,558.676,2556.567,568.643z"/> <path fill-rule="evenodd" clip-rule="evenodd" d="M2486.544,479.403c-15.263-9.103-30.733-17.691-46.41-26.588 c3.6-12.867,12.105-22.677,21.522-29.691c9.411-6.98,19.709-11.34,26.714-12.696c36.302-7.482,78.516,2.211,92.331,36.781 c1.423,3.561,1.845,3.549,2.881,6.756C2514.902,471.028,2542.213,464.034,2486.544,479.403z"/> <path fill-rule="evenodd" clip-rule="evenodd" d="M2491.274,482.265c29.112-5.958,48.265-10.147,94.968-17.852 c5.362,17.471,18.308,67.379,24.345,91.939c0,0-0.531,0.042-3.225-4.41C2547.708,513.431,2525.756,501.631,2491.274,482.265z"/> <path fill-rule="evenodd" clip-rule="evenodd" d="M2460.382,473.078c9.08,34.143,17.712,67.989,25.897,102.361 c-27.309-8.346-65.704-96.14-46.052-117.964L2460.382,473.078z"/> </g> <g> <path fill-rule="evenodd" clip-rule="evenodd" d="M1767.365,409.424c-16.943,32.391-14.365,27.17-27.861,54.725 c-2.76-1.677-36.981-29.284-45.48-45.193c26.491-48.165,34.642-61.525,56.008-96.586 C1755.652,351.443,1761.43,380.461,1767.365,409.424z"/> <path fill-rule="evenodd" clip-rule="evenodd" d="M1746.909,468.123c9.238-24.926,5.483-15.248,20.38-52.788 c7.832,30.904,15.787,61.764,23.867,92.579C1782.863,498.962,1768.696,481.642,1746.909,468.123z"/> <path fill-rule="evenodd" clip-rule="evenodd" d="M1761.355,347.529l-10.197-59.624c25.741-7.431,53.809,10.707,65.032,22.089 c25.35,25.417,48.978,72.258,32.367,107.863c-1.599,3.462-1.327,3.861-2.9,6.741 C1813.892,394.29,1791.756,374.275,1761.355,347.529z"/> <path fill-rule="evenodd" clip-rule="evenodd" d="M1762.438,353.687c26.455,25.844,52.493,52.826,77.667,79.625 c-7.797,14.055-15.425,24.868-44.862,79.137c0,0-0.424-0.488,0.502-5.84C1784.197,455.794,1773.094,404.818,1762.438,353.687z"/> <path fill-rule="evenodd" clip-rule="evenodd" d="M1748.591,318.807c-24.353,33.541-29.538,40.493-59.345,85.173 c-15.606-32.403,26.157-119.84,58.227-113.33L1748.591,318.807z"/> </g> <g> <path fill-rule="evenodd" clip-rule="evenodd" d="M2263.015,116.124c64.604-4.482,30.738-2.118,64.69-3.855 c0.159,3.506-4.089,47.705-13.189,63.472c-5.668-0.051-42.527,0.424-112.906,4.191 C2238.615,140.175,2253.732,125.402,2263.015,116.124z"/> <path fill-rule="evenodd" clip-rule="evenodd" d="M2326.809,103.521c-32.178,4.865-7.588,0.673-58.681,9.457 c26.462-28.819,37.688-40.63,66.968-70.037C2332.239,55.11,2325.785,76.752,2326.809,103.521z"/> <path fill-rule="evenodd" clip-rule="evenodd" d="M2215.044,156.012c-26.11,26.812-20.51,20.878-41.323,43.355 c-21.479-16.059-25.573-49.474-23.973-65.661c1.379-14.341,6.396-35.386,16.979-53.979c10.531-18.771,26.816-34.243,49.836-38.2 c4.071-0.688,4.225-1.157,7.789-1.516C2220.895,78.714,2217.793,117.383,2215.044,156.012z"/> <path fill-rule="evenodd" clip-rule="evenodd" d="M2219.413,151.57c4.998-37.27,10.429-74.597,16.296-111.945 c38.121-2.442,89.274-2.642,100.886-2.741c0,0-0.177,0.635-5.685,2.519C2291.487,76.371,2260.017,107.717,2219.413,151.57z"/> <path fill-rule="evenodd" clip-rule="evenodd" d="M2199.63,183.179c62.995,1.823,38.958,0.792,104.748,4.325 c-17.409,28.001-112.551,42.379-126.3,13.217C2185.21,194.861,2192.368,188.809,2199.63,183.179z"/> </g> <g> <path fill-rule="evenodd" clip-rule="evenodd" d="M2474.111,218.755l4.986-46.76c-1.615-0.164-33.807,0.879-45.813,7.385 l-3.914,83.899C2443.987,248.443,2458.9,233.599,2474.111,218.755z"/> <path fill-rule="evenodd" clip-rule="evenodd" d="M2485.294,173.095l-8.841,42.024c17.146-14.96,34.634-29.522,52.462-44.289 C2520.067,172.062,2504.317,175.347,2485.294,173.095z"/> <path fill-rule="evenodd" clip-rule="evenodd" d="M2445.827,253.341c-9.885,10.349-19.638,20.455-29.237,31.122 c9.541,12.978,29.555,18.394,44.934,16.436c11.646-1.483,26.465-6.548,36.393-12.371c12.572-7.324,23.634-18.409,26.836-34.431 c0.565-2.836,0.892-2.93,1.222-5.419C2459.556,251.799,2492.386,250.158,2445.827,253.341z"/> <path fill-rule="evenodd" clip-rule="evenodd" d="M2448.9,250.145c42.107-5.515,5.969-1.495,77.61-9.422 c0.593-4.969,2.798-28.44,6.811-70.565c0,0-0.465,0.082-2.138,3.83C2483.931,215.814,2469.662,230.109,2448.9,250.145z"/> <path fill-rule="evenodd" clip-rule="evenodd" d="M2427.148,264.761l-2.515-78.18c-21.133,13.191-29.649,85.027-9.075,94.665 C2419.393,275.758,2423.253,270.17,2427.148,264.761z"/> </g> <g> <path fill-rule="evenodd" clip-rule="evenodd" d="M2016.14,353.799l6.67,46.464c1.547-0.189,29.718-7.882,39.615-16.817 l-13.249-82.961C2037.811,318.058,2026.857,336.114,2016.14,353.799z"/> <path fill-rule="evenodd" clip-rule="evenodd" d="M2017.004,400.604l-2.182-42.76c-12.402,18.278-24.246,37.4-35.847,56.006 C1986.047,410.574,2000.995,402.492,2017.004,400.604z"/> <path fill-rule="evenodd" clip-rule="evenodd" d="M2035.217,313.802c7.329-12.409,14.892-24.379,22.566-36.519 c-31.152-28.277-106.332,10.142-98.194,61.121C2003.199,323.715,1974.786,332.711,2035.217,313.802z"/> <path fill-rule="evenodd" clip-rule="evenodd" d="M2032.94,317.619c-52.186,20.105-30.047,11.428-71.592,28.559 c1.416,8.322,13.93,69.447,13.93,69.447s0.383-0.197,0.797-4.221C1997.032,374.868,2008.264,356.178,2032.94,317.619z"/> <path fill-rule="evenodd" clip-rule="evenodd" d="M2051.063,298.578l17.802,76.175c16.435-16.402,12.99-88.815-9.446-94.499 L2051.063,298.578z"/> </g> <g> <path fill-rule="evenodd" clip-rule="evenodd" d="M1538.144,136.729c-26.869,9.157-16.636,5.528-44.583,15.739 c0.882,2.487,15.151,29.001,25.491,36.385c13.478-5.671,63.855-24.804,77.639-29.698 C1578.964,152.06,1584.004,153.914,1538.144,136.729z"/> <path fill-rule="evenodd" clip-rule="evenodd" d="M1491.903,146.687c25.105-6.582,15.468-4.183,41.965-10.511 c-30.379-12.807-25.209-10.63-63.062-25.515C1475.809,117.575,1485.672,129.477,1491.903,146.687z"/> <path fill-rule="evenodd" clip-rule="evenodd" d="M1581.052,147.923c13.392,5.038,26.677,10.139,39.845,15.284 c9.991-16.338,3.348-38.371-2.182-48.012c-9.709-17.084-36.729-46.728-69.425-38.65c-2.865,0.757-3.091,0.507-5.535,1.323 L1581.052,147.923z"/> <path fill-rule="evenodd" clip-rule="evenodd" d="M1576.918,146.427c-13.456-21.881-27.041-43.71-40.754-65.486 c-25.319,8.811-60.589,23.32-67.9,26.3c0,0,0.279,0.353,4.435,0.014C1494.22,114.849,1517.425,122.707,1576.918,146.427z"/> <path fill-rule="evenodd" clip-rule="evenodd" d="M1598.927,160.635c-12.06,5.182-61.977,28.8-69.882,32.732 c19.97,12.78,88.105-6.014,89.293-28.031L1598.927,160.635z"/> </g> <path fill-rule="evenodd" clip-rule="evenodd" d="M1968.124,120.813c-133.561,39.936-252.651,87.589-369.595,145.581 c112.77-67.48,227.753-124.336,359.637-175.25L1968.124,120.813z"/> </g> <g> <path fill-rule="evenodd" clip-rule="evenodd" d="M3788.13,823.052c-75.558-169.138-179.234-335.472-310.832-490.47 c7.614,10.072,14.942,20.533,22.24,30.858c83.257,118.88,150.951,234.63,213.724,381.783 c13.067,31.097,28.601,69.951,38.135,97.318C3763.562,835.982,3775.807,829.485,3788.13,823.052z"/> <g> <path fill-rule="evenodd" clip-rule="evenodd" d="M4060.041,923.234c29.667-11.531,59.53-22.572,89.8-33.326 c-1.282-3.704-30.93-62.194-54.988-78.926c-50.955,22.794-105.866,48.799-154.863,73.807 C3984.021,896.782,4038.598,915.894,4060.041,923.234z"/> <path fill-rule="evenodd" clip-rule="evenodd" d="M4153.356,902.395c-28.561,6.911-56.803,14.177-84.715,21.791 c42.02,17.809,84.396,36.752,126.045,57.715C4185.367,966.222,4166.079,939.856,4153.356,902.395z"/> <path fill-rule="evenodd" clip-rule="evenodd" d="M3972.76,904.701c-27.147-7.997-54.739-14.845-81.757-21.61 c-8.454,18.391-8.479,38.252-4.967,55.623c3.646,17.253,10.268,32.691,16.217,41.667c30.299,45.206,82.585,83.758,136.139,68.229 c5.589-1.607,6.019-1.1,10.802-2.805C4020.524,987.859,3990.748,934.363,3972.76,904.701z"/> <path fill-rule="evenodd" clip-rule="evenodd" d="M3981.253,907.134c29.354,43.435,57.259,87.335,82.847,132.31 c12.988-4.747,62.224-24.493,135.399-49.865c0,0-0.533-0.804-8.854-0.724C4121.158,957.293,4051.195,930.079,3981.253,907.134z"/> <path fill-rule="evenodd" clip-rule="evenodd" d="M3935.262,882.298c45.54-27.808,91.425-54.503,138.09-80.541 c-45.454-28.003-179.486,28.409-177.643,76.17L3935.262,882.298z"/> </g> <g> <path fill-rule="evenodd" clip-rule="evenodd" d="M2985.11,282.708c-16.173,22.344-32.096,45.263-47.592,67.991 c0.307,0.276,49.627,29.176,71.739,30.314c27.601-40.745,56.25-81.142,85.972-121.278 C3039.942,270.187,3032.893,271.8,2985.11,282.708z"/> <path fill-rule="evenodd" clip-rule="evenodd" d="M2929.382,343.658c15.977-19.275,32.312-38.481,49.001-57.597 c-70.071,14.29-43.471,8.41-115.841,25.382C2886.804,320.315,2905.057,325.504,2929.382,343.658z"/> <path fill-rule="evenodd" clip-rule="evenodd" d="M3060.147,257.778c51.682-10.865,36.513-7.819,76.076-15.049 c-1.341-30.702-28.148-58.997-55.402-72.332c-44.778-21.912-113.905-28.745-146.541,11.824c-3.248,4.014-3.864,3.883-6.424,7.553 C2962.648,205.551,3026.404,238.815,3060.147,257.778z"/> <path fill-rule="evenodd" clip-rule="evenodd" d="M3052.374,259.445c-31.292-15.596-97.926-44.13-131.805-57.485 c-14.18,21.026-45.713,73.567-65.208,107.16c0,0,0.757,0.224,6.11-4.525C2923.315,286.909,2987.018,271.767,3052.374,259.445z"/> <path fill-rule="evenodd" clip-rule="evenodd" d="M3100.134,259.836c-24.76,39.306-48.797,78.915-72.069,118.673 c39.338,1.071,127.617-93.814,106.422-129.97L3100.134,259.836z"/> </g> <g> <path fill-rule="evenodd" clip-rule="evenodd" d="M3752.335,993.445c-7.688,19.46-15.534,38.772-23.538,57.932 c-4.534-1.081-37.244-15.617-45.468-26.529c14.703-34.364,28.941-69.174,42.67-104.377 C3744.19,969.394,3743.418,966.917,3752.335,993.445z"/> <path fill-rule="evenodd" clip-rule="evenodd" d="M3736.174,1052.692c5.747-17.883,11.208-35.768,16.588-53.881 c12.848,32.472,24.7,65.485,28.385,76.394C3772.71,1069.533,3757.783,1058.607,3736.174,1052.692z"/> <path fill-rule="evenodd" clip-rule="evenodd" d="M3739.917,939.576c-10.654-30.272-6.418-18.746-18.357-50.194 c18.507-12.683,45.215-11.268,64.13-1.46c30.868,16.122,58.968,51.282,46.911,87.537c-1.215,3.653-0.901,3.932-2.166,7.047 C3819.923,977.189,3792.592,962.932,3739.917,939.576z"/> <path fill-rule="evenodd" clip-rule="evenodd" d="M3741.725,944.766c50.269,26.949,67.417,37.521,84.052,47.415 c-7.469,17.672-27.868,60.282-40.449,85.917c0,0-0.428-0.315,0.402-5.482C3776.297,1040.714,3757.187,983.509,3741.725,944.766z"/> <path fill-rule="evenodd" clip-rule="evenodd" d="M3724.122,917.768c-14.948,31.898-30.45,63.755-46.178,95.173 c-15.104-22.098,10.824-115.596,40.692-119.928L3724.122,917.768z"/> </g> <g> <path fill-rule="evenodd" clip-rule="evenodd" d="M3234.102,423.734c-18.988,7.539-37.921,15.791-56.532,24.031 c-0.4-1.189-9.683-45.213-5.767-63.894c34.203-13.22,69.365-26.32,104.974-37.918 C3262.396,371.821,3248.171,397.748,3234.102,423.734z"/> <path fill-rule="evenodd" clip-rule="evenodd" d="M3180.68,455.59c35.264-19.914,26.117-14.839,49.567-27.384 c-13.865,28.696-27.608,57.437-41.226,86.224C3188.466,502.123,3188.617,480.115,3180.68,455.59z"/> <path fill-rule="evenodd" clip-rule="evenodd" d="M3269.271,372.512l30.509-52.192c20.877,8.686,33.802,36.85,35.61,58.723 c3.13,37.112-9.507,86.946-44.548,103.423c-3.447,1.614-3.495,2.097-6.549,3.283 C3277.725,426.149,3272.693,395.08,3269.271,372.512z"/> <path fill-rule="evenodd" clip-rule="evenodd" d="M3266.143,377.922c3.811,39.963,6.031,68.944,8.307,110.905 c-22.235,7.933-40.775,14.305-85.219,31.712c0,0-0.011-0.647,4.135-4.141C3217.182,470.074,3241.442,423.914,3266.143,377.922z"/> <path fill-rule="evenodd" clip-rule="evenodd" d="M3277.964,342.298c-33.859,8.029-67.432,17.515-100.186,27.011 c8.783-34.436,96.638-75.283,117.421-49.27L3277.964,342.298z"/> </g> <g> <path fill-rule="evenodd" clip-rule="evenodd" d="M3802.322,517.601c31.5,22.819,19.556,13.938,52.069,38.605 c-2.253,2.948-33.9,33.979-50.943,40.213c-29.076-23.859-58.86-46.931-89.188-69.372 C3765.096,520.688,3778.108,519.762,3802.322,517.601z"/> <path fill-rule="evenodd" clip-rule="evenodd" d="M3859.326,548.93c-43.898-26.794-22.889-14.013-51.055-30.466 c31.937-4.422,63.825-7.646,96.371-10.66C3894.622,515.302,3875.747,527.76,3859.326,548.93z"/> <path fill-rule="evenodd" clip-rule="evenodd" d="M3739.94,517.327c-47.793,4.888-30.614,3.055-59.518,6.664 c-6.146-26.094,12.188-54.33,23.816-65.707c27.884-27.43,74.441-48.766,110.442-27.725c3.565,2.083,3.985,1.823,6.951,3.832 C3794.106,461.836,3766.874,489.483,3739.94,517.327z"/> <path fill-rule="evenodd" clip-rule="evenodd" d="M3746.147,516.724c27.754-25.313,56.014-50.593,84.372-75.24 c30.016,22.178,64.228,50.453,79.17,62.638c0,0-0.544,0.373-5.991-1.706C3852.028,505.528,3797.652,509.784,3746.147,516.724z"/> <path fill-rule="evenodd" clip-rule="evenodd" d="M3710.654,528.267c22.419,19.81,43.164,37.826,77.49,70.617 c-31.466,9.82-113.463-39.644-105.252-71.058C3692.158,527.861,3701.454,527.942,3710.654,528.267z"/> </g> <g> <path fill-rule="evenodd" clip-rule="evenodd" d="M3898.077,731.961l33.842-32.537c-1.408-1.495-25.674-21.056-39.805-23.862 l-56.967,61.777C3874.853,733.613,3874.034,733.618,3898.077,731.961z"/> <path fill-rule="evenodd" clip-rule="evenodd" d="M3935.965,704.247l-33.779,26.464c51.686-0.585,45.331-0.541,68.707-0.2 C3957.453,722.025,3946.904,715.677,3935.965,704.247z"/> <path fill-rule="evenodd" clip-rule="evenodd" d="M3854.221,740.207c-14.243,1.593-28.377,3.274-42.4,5.041 c-2.851,41.591,68.593,73.308,102.335,46.304c2.252-1.802,2.56-1.661,4.411-3.351 C3911.929,782.86,3885.47,762.722,3854.221,740.207z"/> <path fill-rule="evenodd" clip-rule="evenodd" d="M3858.644,739.715c11.332,6.861,55.28,35.579,65.447,42.744 c3.633-3.405,20.546-20.072,50.568-49.581c0,0-0.404-0.241-4.083,1.534C3940.043,734.797,3884.243,737.581,3858.644,739.715z"/> <path fill-rule="evenodd" clip-rule="evenodd" d="M3832.481,737.059l48.333-61.494c-24.485-3.651-77.063,45.619-67.706,66.543 L3832.481,737.059z"/> </g> <g> <path fill-rule="evenodd" clip-rule="evenodd" d="M3460.446,541.04l-24.75,39.877c1.206,0.788,28.105,13.284,41.16,12.588 l43.168-72.081C3499.956,527.709,3480.03,534.37,3460.446,541.04z"/> <path fill-rule="evenodd" clip-rule="evenodd" d="M3431.034,577.436l25.805-34.148c-19.276,5.473-42.707,13.184-63.467,19.864 C3401.27,565.333,3415.973,568.181,3431.034,577.436z"/> <path fill-rule="evenodd" clip-rule="evenodd" d="M3500.745,522.703c24.455-8.341,15.077-5.246,40.777-13.512 c-2.492-19.538-22.542-32.128-33.244-35.993c-18.889-7.207-59.585-11.6-77.998,15.216c-1.644,2.373-1.976,2.328-3.265,4.479 C3471.459,510.24,3454.542,503.37,3500.745,522.703z"/> <path fill-rule="evenodd" clip-rule="evenodd" d="M3496.55,524.16c-43.788-15.037-26.979-9.511-73.184-24.181 c-4.264,7.284-33.964,62.147-33.964,62.147s0.42,0.096,3.322-2.717C3436.349,543.416,3456.44,536.733,3496.55,524.16z"/> <path fill-rule="evenodd" clip-rule="evenodd" d="M3522.695,521.178l-35.316,69.805c23.125-1.984,67.014-59.67,53.488-78.463 L3522.695,521.178z"/> </g> <g> <path fill-rule="evenodd" clip-rule="evenodd" d="M3233.838,67.486c-14.628-5.895-29.479-11.137-44.29-16.566 c-0.51,1.359-7.169,31.456-3.869,44.283c24.76,8.022,12.057,3.621,78.61,27.055C3254.415,104.02,3244.247,85.815,3233.838,67.486 z"/> <path fill-rule="evenodd" clip-rule="evenodd" d="M3191.994,45.429c13.022,6.272,26.103,12.228,38.927,18.874 c-12.531-24.491-9.508-18.679-31.925-60.046C3198.383,12.774,3198.283,28.244,3191.994,45.429z"/> <path fill-rule="evenodd" clip-rule="evenodd" d="M3259.479,103.754c7.117,12.181,13.938,24.849,20.724,37.236 c18.14-6.044,27.216-27.186,29.18-38.132c4.885-27.063-2.255-61.964-28.341-74.207c-2.679-1.271-2.691-1.607-5.086-2.562 L3259.479,103.754z"/> <path fill-rule="evenodd" clip-rule="evenodd" d="M3257.277,99.94c3.764-25.425,7.396-50.892,10.895-76.401 c-26.616-9.955-49.277-17.135-68.923-23.54c0,0-0.013,0.45,3.386,2.873C3216.895,27.105,3228.239,45.706,3257.277,99.94z"/> <path fill-rule="evenodd" clip-rule="evenodd" d="M3265.048,124.835c-11.487-3.225-60.371-16.415-74.622-19.728 c6.639,22.129,71.16,52.182,86.45,35.859L3265.048,124.835z"/> </g> <path fill-rule="evenodd" clip-rule="evenodd" d="M3573.397,331.691c-122.456-52.773-248.509-95.312-376.671-126.044 c130.313,20.511,260.203,53.261,388.114,96.909L3573.397,331.691z"/> </g> <g> <path fill-rule="evenodd" clip-rule="evenodd" d="M4516.518,2039.425c43.467-152.055,68.127-311.703,74.644-462.139 c1.647-40.641,2.698-89.603,2.208-113.367c-11.735,194.473-52.573,391.916-117.429,566.799 C4489.445,2033.521,4502.971,2036.423,4516.518,2039.425z"/> <g> <path fill-rule="evenodd" clip-rule="evenodd" d="M4660.063,2291.034c36.555,12.441,61.68,21.599,90.379,32.273 c3.275-10.409,15.774-68.857,8.537-95.775c-55.943-16.066-106.279-29.257-165.966-43.189 C4605.049,2202.367,4623.574,2229.194,4660.063,2291.034z"/> <path fill-rule="evenodd" clip-rule="evenodd" d="M4744.957,2335.13c-27.872-13.95-47.422-23.396-78.896-37.833 c21.139,40.654,40.717,82.444,59.531,125.261C4727.796,2407.217,4731.036,2370.951,4744.957,2335.13z"/> <path fill-rule="evenodd" clip-rule="evenodd" d="M4605.415,2220.656c-6.359-9.758-37.192-53.801-48.836-69.125 c-24.319,11.492-41.299,36.674-49.383,62.334c-7.419,23.351-6.884,48.882-2.99,73.265c5.936,36.524,23.848,70.456,58.85,85.939 c5.337,2.366,5.364,3.031,10.123,4.804C4589.256,2308.701,4592.148,2296.223,4605.415,2220.656z"/> <path fill-rule="evenodd" clip-rule="evenodd" d="M4610.273,2227.991c-7.653,70.186-16.144,124.856-21.667,154.607 c13.4,4.863,68.609,23.36,135.813,48.931c0,0,0.101-0.958-6.371-6.247C4685.316,2356.433,4649.018,2290.56,4610.273,2227.991z"/> <path fill-rule="evenodd" clip-rule="evenodd" d="M4591.041,2179.389c56.393,8.652,112.238,18.41,157.619,27.225 c-15.142-48.709-155.197-94.837-185.156-56.007C4577.825,2165.24,4569.692,2156.637,4591.041,2179.389z"/> </g> <g> <path fill-rule="evenodd" clip-rule="evenodd" d="M4248.173,1109.646c-26.95,6.868-53.68,14.031-80.182,21.485 c0.456,2.085,19.811,54.866,35.41,69.41c38.622-11.139,90.808-24.979,143.821-37.689 C4311.477,1142.846,4299.876,1135.982,4248.173,1109.646z"/> <path fill-rule="evenodd" clip-rule="evenodd" d="M4166.316,1120.481c24.597-4.458,49.417-8.633,74.453-12.52 c-23.178-12.738-57.634-31.995-105.056-55.043C4143.685,1066.379,4159.826,1090.925,4166.316,1120.481z"/> <path fill-rule="evenodd" clip-rule="evenodd" d="M4321.674,1138.769c48.539,26.044,37.336,19.867,67.924,37.349 c19.018-24.842,15.922-64.162,4.075-91.015c-15.38-36.015-62.735-95.947-119.879-85.03c-5.059,0.979-5.444,0.48-9.757,1.64 C4282.976,1041.704,4314.425,1118.771,4321.674,1138.769z"/> <path fill-rule="evenodd" clip-rule="evenodd" d="M4314.663,1135.042c-20.048-43.168-40.997-86.404-64.025-128.698 c-13.463,3.847-66.017,20.858-118.898,40.15c0,0,0.432,0.661,7.565,0.487C4198.112,1073.161,4256.668,1102.5,4314.663,1135.042z"/> <path fill-rule="evenodd" clip-rule="evenodd" d="M4350.928,1166.071c-44.241,14.226-88.053,29.09-131.419,44.583 c29.304,26.103,157.981,10.205,165.026-31.198C4373.277,1174.923,4362.205,1170.373,4350.928,1166.071z"/> </g> <g> <path fill-rule="evenodd" clip-rule="evenodd" d="M4379.583,2146.767c-18.464,9.952-36.954,19.686-55.467,29.202 c-1.835-2.506-18.357-35.724-17.668-49.503c33.387-16.834,66.985-34.367,99.763-52.407 C4401.67,2088.039,4386.82,2128.562,4379.583,2146.767z"/> <path fill-rule="evenodd" clip-rule="evenodd" d="M4328.922,2181.713c15.856-9.975,31.692-20.163,47.504-30.564 c-15.908,46.359-9.563,28.784-27.533,76.693C4343.612,2210.718,4341.016,2198.707,4328.922,2181.713z"/> <path fill-rule="evenodd" clip-rule="evenodd" d="M4404.712,2097.588c5.99-15.567,3.451-8.469,18.222-50.188 c22.579,2.219,42.515,21.499,50.041,40.089c13.587,33.559,11.559,77.71-20.367,97.127c-3.295,2.015-3.238,2.431-6.222,4.001 C4433.158,2157.713,4419.322,2127.35,4404.712,2097.588z"/> <path fill-rule="evenodd" clip-rule="evenodd" d="M4402.726,2102.725c2.247,5.707,19.307,47.387,33.84,90.301 c-8.438,4.292-48.1,22.97-86.245,39.709c0,0-0.135-0.515,3.772-3.928C4371.99,2186.293,4380.205,2167.042,4402.726,2102.725z"/> <path fill-rule="evenodd" clip-rule="evenodd" d="M4406.529,2070.782c-35.062,16.232-64.301,29.243-96.46,43.106 c2.893-27.172,82.982-81.336,108.292-65.59L4406.529,2070.782z"/> </g> <g> <path fill-rule="evenodd" clip-rule="evenodd" d="M4348.387,1377.711c-19.384-6.42-39.265-12.215-58.778-17.879 c0.474-1.212,21.918-41.169,36.575-52.67c34.759,11.801,70.1,24.352,104.849,38.313 C4403.403,1356.076,4375.854,1366.821,4348.387,1377.711z"/> <path fill-rule="evenodd" clip-rule="evenodd" d="M4286.965,1367.832c18.479,3.353,37.229,6.839,55.596,10.832 c-29.052,13.098-58.039,26.311-86.96,39.636C4263.087,1408.502,4277.257,1391.762,4286.965,1367.832z"/> <path fill-rule="evenodd" clip-rule="evenodd" d="M4408.227,1361.021l56.891-20.431c10.445,20.154,2.25,49.972-10.39,67.88 c-21.409,30.403-63.041,60.603-100.543,50.713c-3.679-0.976-4.025-0.637-7.127-1.688 C4375.155,1415.279,4391.091,1389.381,4408.227,1361.021z"/> <path fill-rule="evenodd" clip-rule="evenodd" d="M4402.356,1363.161c-21.72,31.626-39.452,56.5-64.819,90.374 c-20.914-7.744-39.543-14.893-85.697-30.414c0,0,0.407-0.503,5.828-0.519C4305.665,1402.38,4353.896,1382.565,4402.356,1363.161z "/> <path fill-rule="evenodd" clip-rule="evenodd" d="M4434.29,1343.434c-31.116-15.575-62.918-29.875-94.176-43.598 c29.017-20.873,122.527,4.472,121.675,37.597L4434.29,1343.434z"/> </g> <g> <path fill-rule="evenodd" clip-rule="evenodd" d="M4723.792,1814.569c13.523,54.099,7.075,28.113,15.069,63.082 c-3.616,0.81-47.79,4.23-64.823-1.958c-5.676-33.36-22.728-105.939-23.79-110.496 C4695.525,1794.496,4712.704,1806.81,4723.792,1814.569z"/> <path fill-rule="evenodd" clip-rule="evenodd" d="M4747.321,1875.249c-10.949-32.659-4.866-15.479-19.536-56.19 c32.3,20.652,43.241,27.766,80.652,53.833C4795.951,1872.189,4773.505,1869.588,4747.321,1875.249z"/> <path fill-rule="evenodd" clip-rule="evenodd" d="M4676.149,1774.258c-28.682-19.495-24.246-16.638-49.912-33.133 c12.07-23.96,44.256-33.831,60.472-35.08c14.358-1.146,35.954,0.124,56.104,7.306c20.309,7.101,38.434,20.44,46.333,42.442 c1.388,3.892,1.877,3.963,2.854,7.412C4753.284,1766.543,4714.666,1770.228,4676.149,1774.258z"/> <path fill-rule="evenodd" clip-rule="evenodd" d="M4681.285,1777.787c37.565-1.574,75.291-2.736,113.063-3.453 c9.135,37.384,17.893,85.991,20.318,98.984c0,0-0.657-0.064-3.478-5.167C4768.091,1835.877,4733.354,1811.326,4681.285,1777.787z "/> <path fill-rule="evenodd" clip-rule="evenodd" d="M4646.708,1763.814c9.034,61.176,5.493,34.388,14.025,103.928 c-30.576-12.255-61.401-103.432-35.071-122.088C4632.657,1751.66,4639.899,1757.643,4646.708,1763.814z"/> </g> <g> <path fill-rule="evenodd" clip-rule="evenodd" d="M4659.437,2040.368l46.812-3.135c-0.173-3.187-6.951-33.527-15.19-43.877 l-83.326,10.663C4624.907,2015.837,4642.169,2027.949,4659.437,2040.368z"/> <path fill-rule="evenodd" clip-rule="evenodd" d="M4706.209,2043.535l-42.836-1.478c17.526,14.342,35.11,29.028,52.742,44.059 C4713.344,2077.611,4707.337,2062.663,4706.209,2043.535z"/> <path fill-rule="evenodd" clip-rule="evenodd" d="M4620.412,2018.496c-11.922-7.941-23.648-15.779-35.652-23.414 c-13.39,13.993-11.76,36.592-8.434,47.078c8.756,26.643,28.765,53.501,57.036,54.185c2.893,0.068,3.043,0.374,5.553,0.27 C4632.919,2070.485,4627.289,2044.349,4620.412,2018.496z"/> <path fill-rule="evenodd" clip-rule="evenodd" d="M4624.101,2020.968c8.286,24.693,15.254,49.737,22.744,74.804 c4.035-0.218,15.221-1.102,70.627-5.42c0,0-0.151-0.445-4.099-1.455C4666.487,2051.46,4640.249,2032.575,4624.101,2020.968z"/> <path fill-rule="evenodd" clip-rule="evenodd" d="M4605.882,2002.088l76.563-16.008c-16.043-18.458-88.778-14.615-94.698,7.429 C4593.89,1996.318,4599.869,1999.191,4605.882,2002.088z"/> </g> <g> <path fill-rule="evenodd" clip-rule="evenodd" d="M4446.66,1612.955l-44.572,14.693c0.427,1.406,13.008,28.228,23.459,36.073 l79.396-27.57C4485.472,1628.107,4465.964,1620.407,4446.66,1612.955z"/> <path fill-rule="evenodd" clip-rule="evenodd" d="M4400.75,1621.986l41.702-9.623c-17.361-7.77-41.935-17.586-61.419-25.497 C4385.695,1593.604,4395.11,1605.237,4400.75,1621.986z"/> <path fill-rule="evenodd" clip-rule="evenodd" d="M4489.318,1624.765c24.132,9.291,14.963,5.65,39.952,15.81 c10.648-16.587,3.304-39.092-2.391-48.937c-9.843-17.657-38.263-47.134-69.574-38.396c-2.783,0.765-3.009,0.517-5.378,1.339 C4474.86,1596.415,4466.297,1580.284,4489.318,1624.765z"/> <path fill-rule="evenodd" clip-rule="evenodd" d="M4485.168,1623.188c-23.337-38.625-9.886-17.21-40.587-65.516 c-7.945,2.849-65.931,25.859-65.931,25.859s0.26,0.343,4.291,0.048C4427.137,1599.493,4444.826,1606.462,4485.168,1623.188z"/> <path fill-rule="evenodd" clip-rule="evenodd" d="M4507.147,1637.677l-71.891,30.854c18.988,13.323,89.667-2.727,91.374-25.825 L4507.147,1637.677z"/> </g> <g> <path fill-rule="evenodd" clip-rule="evenodd" d="M4576.978,1104.473c-6.807-12.494-2.362-4.677-23.289-41.097 c-1.35,0.765-25.728,19.548-31.43,31.453c14.911,23.339,28.679,47.392,42.84,71.163 C4569.211,1145.704,4573.173,1125.196,4576.978,1104.473z"/> <path fill-rule="evenodd" clip-rule="evenodd" d="M4559.091,1060.739c11.469,25.223,14.529,31.821,17.702,39.421 c4.563-19.257,9.741-45.123,14.124-66.475C4584.971,1039.818,4574.948,1051.61,4559.091,1060.739z"/> <path fill-rule="evenodd" clip-rule="evenodd" d="M4573.284,1148.736c-2.397,13.915-5.198,27.934-8.01,41.815 c17.77,7.013,38.301-3.37,46.837-10.5c21.148-17.628,38.057-49.053,25.937-75.038c-1.232-2.693-1.025-2.96-2.243-5.228 L4573.284,1148.736z"/> <path fill-rule="evenodd" clip-rule="evenodd" d="M4574.051,1144.398c19.22-17.072,38.366-34.26,57.438-51.565 c-16.692-28.96-17.199-29.375-37.642-62.248c0,0-0.3,0.336,0.741,4.376C4587.425,1078.058,4584.066,1096.685,4574.051,1144.398z"/> <path fill-rule="evenodd" clip-rule="evenodd" d="M4564.052,1168.438c-38.433-55.04-30.728-44.123-44.531-62.968 c-9.122,21.374,21.032,85.624,43.222,82.926L4564.052,1168.438z"/> </g> <path fill-rule="evenodd" clip-rule="evenodd" d="M4667.645,1524.922c-60.068-119.086-129.396-232.581-207.857-338.387 c86.675,99.353,165.222,207.796,235.334,323.389L4667.645,1524.922z"/> </g> </g> </svg>